<svg version="1.1" xmlns="http://www.w3.org/2000/svg" viewBox="0 0 658 325" width="658" height="325">
  <!-- svg-source:excalidraw -->
  
  <defs>
    <style class="style-fonts">
      @font-face {
        font-family: "Virgil";
        src: url("https://excalidraw.com/Virgil.woff2");
      }
      @font-face {
        font-family: "Cascadia";
        src: url("https://excalidraw.com/Cascadia.woff2");
      }
    </style>
  </defs>
  <rect x="0" y="0" width="658" height="325" fill="#ffffff"></rect><g stroke-linecap="round" transform="translate(10 10) rotate(0 319 152.5)"><path d="M7.86 8.16 C7.86 8.16, 7.86 8.16, 7.86 8.16 M7.86 8.16 C7.86 8.16, 7.86 8.16, 7.86 8.16 M3.66 19.09 C10.52 13.79, 11.38 10.65, 18.1 2.48 M3.66 19.09 C7.54 15.97, 10.65 9.5, 18.1 2.48 M2.75 26.24 C6.16 21.34, 15.41 15.65, 24.4 1.33 M2.75 26.24 C9.34 21.9, 11.95 13.86, 24.4 1.33 M1.83 33.39 C10.69 19.87, 21.8 9.79, 30.7 0.18 M1.83 33.39 C12.18 22.44, 25.67 9.64, 30.7 0.18 M1.57 39.79 C10.87 30.17, 26.93 14.67, 34.37 2.05 M1.57 39.79 C8.46 31.87, 18.68 20.6, 34.37 2.05 M1.96 45.43 C12.35 32.19, 21.01 25.14, 39.36 2.41 M1.96 45.43 C12.27 35.26, 23.74 21.88, 39.36 2.41 M1.7 51.83 C15.67 32.93, 24.17 23.87, 45 2.02 M1.7 51.83 C18.39 31.32, 33.68 14.23, 45 2.02 M1.44 58.23 C12.97 43.66, 32.82 22.69, 49.99 2.38 M1.44 58.23 C12.47 45.15, 21.11 35.28, 49.99 2.38 M1.83 63.87 C12.19 47.62, 23.97 37.27, 55.63 1.98 M1.83 63.87 C17.8 48.56, 31.99 28.51, 55.63 1.98 M1.57 70.27 C17.61 55.21, 32.79 36.71, 60.62 2.34 M1.57 70.27 C16 54.7, 32.4 35.81, 60.62 2.34 M1.97 75.91 C20.75 58.4, 40.81 36.45, 66.26 1.95 M1.97 75.91 C20.07 49.11, 41.37 26.85, 66.26 1.95 M1.71 82.31 C19.87 64.84, 36.94 42.19, 71.25 2.31 M1.71 82.31 C25.21 59.68, 44.47 34.04, 71.25 2.31 M1.44 88.71 C31.41 63.64, 59.01 28.36, 76.89 1.91 M1.44 88.71 C25.49 59.23, 51.07 31.42, 76.89 1.91 M1.84 94.35 C28.84 53.11, 64.47 18.51, 81.88 2.27 M1.84 94.35 C28.84 61.11, 60.77 28.07, 81.88 2.27 M1.58 100.75 C26.62 74.94, 51 45.85, 87.52 1.88 M1.58 100.75 C27.85 71.02, 55.92 36.43, 87.52 1.88 M1.97 106.39 C32.54 78.4, 54.16 47.24, 92.51 2.24 M1.97 106.39 C20.98 84.76, 39.16 57.41, 92.51 2.24 M1.71 112.79 C32.31 78.3, 62.96 45.03, 98.15 1.85 M1.71 112.79 C27.5 82.96, 50.87 49.46, 98.15 1.85 M1.45 119.19 C34.17 85.27, 64.48 54.81, 103.14 2.21 M1.45 119.19 C38.48 80.22, 74.85 38.81, 103.14 2.21 M1.84 124.83 C25.14 100.96, 44.87 76.92, 108.78 1.81 M1.84 124.83 C43.67 75.69, 87.62 30.67, 108.78 1.81 M1.58 131.23 C45.9 84.79, 86.35 26.7, 113.77 2.17 M1.58 131.23 C27.55 97.77, 53.9 64.76, 113.77 2.17 M1.98 136.87 C34.33 98.39, 62.51 64.94, 119.41 1.78 M1.98 136.87 C27.54 99.03, 59.04 66.3, 119.41 1.78 M1.72 143.27 C41.01 102.2, 84.78 50.5, 124.4 2.14 M1.72 143.27 C30.92 106.7, 61.95 67.92, 124.4 2.14 M1.45 149.67 C48.28 96.14, 85.88 49.49, 130.04 1.74 M1.45 149.67 C35.69 112.47, 66.4 75.81, 130.04 1.74 M1.85 155.31 C32.26 116.98, 67.33 85.23, 135.03 2.1 M1.85 155.31 C55.72 99.06, 106.96 38.16, 135.03 2.1 M1.59 161.71 C48.03 105.27, 99.28 48.26, 140.67 1.71 M1.59 161.71 C49.88 106.69, 98.85 50.08, 140.67 1.71 M1.98 167.35 C31.47 134.27, 60.52 100.08, 145.66 2.07 M1.98 167.35 C38.95 126.28, 74.38 84.86, 145.66 2.07 M1.72 173.75 C54.09 101.73, 112.68 39.84, 150.65 2.43 M1.72 173.75 C55.56 111.96, 109.14 54.57, 150.65 2.43 M1.46 180.14 C54.46 116.29, 113.4 57.87, 156.29 2.03 M1.46 180.14 C60.63 119.9, 115.62 57.14, 156.29 2.03 M1.85 185.79 C46.37 131.63, 92.14 82.74, 161.28 2.39 M1.85 185.79 C66.14 118.9, 127.44 46.02, 161.28 2.39 M1.59 192.19 C50.24 132.13, 99.07 72.23, 166.92 2 M1.59 192.19 C36.14 149.85, 70.04 111.57, 166.92 2 M1.99 197.83 C65.02 123.37, 128.13 55.72, 171.91 2.36 M1.99 197.83 C42.86 146.43, 87.52 98.86, 171.91 2.36 M1.72 204.23 C58.61 133.8, 122.63 64.54, 177.55 1.96 M1.72 204.23 C43.24 160.69, 80.47 117.69, 177.55 1.96 M1.46 210.62 C56.42 144.91, 111.41 84.4, 182.54 2.32 M1.46 210.62 C53.82 151.81, 104.34 91.72, 182.54 2.32 M1.86 216.27 C56.05 153.68, 108.55 93.27, 188.18 1.93 M1.86 216.27 C69.58 138.9, 138.27 60.31, 188.18 1.93 M1.6 222.66 C64.14 155.63, 119.65 91.02, 193.17 2.29 M1.6 222.66 C50.79 166.66, 103.91 106.06, 193.17 2.29 M1.99 228.31 C67.76 159.38, 124.55 85.3, 198.81 1.9 M1.99 228.31 C74.16 149.66, 143.76 71.08, 198.81 1.9 M1.73 234.71 C60.78 160.25, 121.19 92.54, 203.8 2.26 M1.73 234.71 C67.65 161.56, 131.44 87.64, 203.8 2.26 M1.47 241.1 C54.69 187.29, 102.01 131.99, 209.44 1.86 M1.47 241.1 C51.71 176.77, 105.95 117, 209.44 1.86 M1.86 246.75 C76.69 158.96, 149.81 73.83, 214.43 2.22 M1.86 246.75 C49.53 194.98, 94.95 141.54, 214.43 2.22 M1.6 253.14 C42.3 195.13, 88.9 146.02, 220.07 1.83 M1.6 253.14 C61.34 184.6, 117.13 120.55, 220.07 1.83 M2 258.79 C63.39 190.47, 128.21 120.52, 225.06 2.19 M2 258.79 C63.19 191.86, 122.11 124.14, 225.06 2.19 M1.73 265.19 C87.59 163.63, 173.71 62.9, 230.7 1.79 M1.73 265.19 C78.65 175.34, 159.08 83.14, 230.7 1.79 M0.16 273.09 C82.49 176.78, 165.78 81.73, 235.69 2.15 M0.16 273.09 C55.09 205.61, 110.89 141.58, 235.69 2.15 M1.21 277.98 C68.59 198.81, 137.89 122.87, 241.33 1.76 M1.21 277.98 C91.09 174.39, 181.25 71.7, 241.33 1.76 M1.61 283.62 C70.13 205.77, 140.76 126.31, 246.32 2.12 M1.61 283.62 C62.3 213.99, 120.34 148.46, 246.32 2.12 M3.31 287.76 C96.53 180.25, 196.67 70.13, 251.96 1.72 M3.31 287.76 C57.79 225.73, 113.42 161.96, 251.96 1.72 M5.68 291.14 C106.71 179.61, 205.17 67.66, 256.95 2.08 M5.68 291.14 C58.26 232.44, 113.07 169.78, 256.95 2.08 M8.04 294.52 C63.51 232.74, 119.73 166.64, 262.59 1.69 M8.04 294.52 C69.3 223.69, 131.79 151.36, 262.59 1.69 M10.4 297.89 C67.67 225.31, 128.75 156.7, 267.58 2.05 M10.4 297.89 C82.26 218.29, 152.09 139.77, 267.58 2.05 M12.76 301.27 C63.7 235.36, 121.78 174.11, 272.56 2.41 M12.76 301.27 C67.42 236.2, 121.42 172.97, 272.56 2.41 M17.75 301.63 C74.02 238.18, 130.4 171.48, 278.21 2.01 M17.75 301.63 C109 201.58, 196.88 98.43, 278.21 2.01 M22.08 302.75 C81.68 235.36, 140.55 164.66, 283.19 2.37 M22.08 302.75 C115.94 199.15, 211.4 91.77, 283.19 2.37 M26.41 303.86 C121.36 199.54, 208.4 91.44, 288.84 1.98 M26.41 303.86 C112.39 204.78, 196.49 108.57, 288.84 1.98 M30.74 304.98 C102.32 223.68, 174.17 144.25, 293.82 2.34 M30.74 304.98 C120.39 200.61, 211.23 98.16, 293.82 2.34 M34.42 306.85 C107.03 218.49, 185.25 132.15, 299.47 1.94 M34.42 306.85 C124.29 203.58, 213.79 99.95, 299.47 1.94 M39.41 307.21 C132.97 197.03, 230.53 86.01, 304.45 2.3 M39.41 307.21 C119.4 216.54, 200.52 121.22, 304.45 2.3 M45.05 306.81 C124.91 214, 206.6 120.15, 310.1 1.91 M45.05 306.81 C121.29 223.8, 195.4 137.49, 310.1 1.91 M50.04 307.17 C120.72 225.99, 188.5 148.47, 315.08 2.27 M50.04 307.17 C156.66 186.16, 261.41 64.86, 315.08 2.27 M55.68 306.78 C138.78 209.54, 222.77 113.7, 320.73 1.88 M55.68 306.78 C123.64 230.38, 192.24 152.2, 320.73 1.88 M60.67 307.14 C157.08 197.3, 251.7 87.12, 325.71 2.24 M60.67 307.14 C118.76 238.45, 180.3 167.79, 325.71 2.24 M66.31 306.74 C131.52 227.77, 200.19 151.73, 331.36 1.84 M66.31 306.74 C162.76 196.88, 256.07 89.64, 331.36 1.84 M71.3 307.1 C165.79 198.69, 258.79 86.92, 336.34 2.2 M71.3 307.1 C136.22 229.16, 200.43 153.26, 336.34 2.2 M76.94 306.71 C161.19 212.21, 240.02 118.79, 341.99 1.81 M76.94 306.71 C152.05 222.32, 222.74 139.57, 341.99 1.81 M81.93 307.07 C141.35 237.97, 201.35 170.54, 346.97 2.17 M81.93 307.07 C182.91 190.27, 284.2 76.29, 346.97 2.17 M87.57 306.67 C154.31 233.85, 217.3 160.67, 352.62 1.77 M87.57 306.67 C161.79 221.58, 234.53 136.34, 352.62 1.77 M92.56 307.04 C153.65 237.14, 210.19 166.52, 357.6 2.13 M92.56 307.04 C180.56 209.21, 267.95 109.22, 357.6 2.13 M98.2 306.64 C183.74 208.75, 265.97 114.15, 363.25 1.74 M98.2 306.64 C169.31 222.35, 240.61 136.91, 363.25 1.74 M103.19 307 C175.11 225.6, 246.29 147.19, 368.23 2.1 M103.19 307 C188.95 210.62, 275.88 109.98, 368.23 2.1 M108.17 307.36 C201.42 197.31, 295.74 89.34, 373.88 1.7 M108.17 307.36 C188.81 210.7, 273.01 116.01, 373.88 1.7 M113.82 306.97 C211.84 197.49, 310.66 84.36, 378.86 2.06 M113.82 306.97 C209 193.81, 308.42 79.78, 378.86 2.06 M118.8 307.33 C189.58 222.72, 265.67 137.04, 383.85 2.42 M118.8 307.33 C195.61 216.61, 274.68 126.41, 383.85 2.42 M124.45 306.93 C179.53 241.03, 237.07 175.82, 389.49 2.03 M124.45 306.93 C225.03 189.45, 326.69 73.58, 389.49 2.03 M129.43 307.29 C232.77 189.51, 333.57 73.13, 394.48 2.39 M129.43 307.29 C196.99 230.89, 263.05 155.55, 394.48 2.39 M135.08 306.9 C237.25 181.63, 343.42 60.81, 400.12 1.99 M135.08 306.9 C201.94 231.53, 269.47 154.97, 400.12 1.99 M140.06 307.26 C200.64 235.66, 262.82 164.27, 405.11 2.35 M140.06 307.26 C213.17 225.89, 284.74 143.3, 405.11 2.35 M145.71 306.86 C234.58 204.97, 322.36 101.23, 410.75 1.96 M145.71 306.86 C247.08 191.97, 347.6 76.19, 410.75 1.96 M150.69 307.22 C254.44 195.1, 353.74 79.72, 415.74 2.32 M150.69 307.22 C257.93 188.74, 359.47 69.17, 415.74 2.32 M156.34 306.83 C255.71 189.23, 359.9 73.65, 421.38 1.93 M156.34 306.83 C247.64 200.38, 341.27 91.92, 421.38 1.93 M161.32 307.19 C230.3 228.68, 296.92 153.85, 426.37 2.29 M161.32 307.19 C233.87 218.72, 309.05 132.4, 426.37 2.29 M166.97 306.79 C252.29 209.41, 334.81 108.54, 432.01 1.89 M166.97 306.79 C235.62 228.01, 305.08 149.16, 432.01 1.89 M171.95 307.15 C244.41 226.17, 317.07 143.42, 437 2.25 M171.95 307.15 C267.13 195.96, 367.99 80.79, 437 2.25 M177.6 306.76 C249.45 224.8, 321.43 139.17, 442.64 1.86 M177.6 306.76 C285.55 185.57, 388.5 67.51, 442.64 1.86 M182.58 307.12 C267.16 210.87, 354.07 111.94, 447.63 2.22 M182.58 307.12 C271.25 209.4, 358.7 107.21, 447.63 2.22 M188.23 306.72 C280.66 196.58, 377.86 83.83, 453.27 1.82 M188.23 306.72 C269.25 212.77, 354.3 114.38, 453.27 1.82 M193.21 307.08 C268.14 230.97, 336 150.62, 458.26 2.18 M193.21 307.08 C289.43 197.96, 385.08 85.46, 458.26 2.18 M198.86 306.69 C276.86 218.75, 351.79 133.63, 463.9 1.79 M198.86 306.69 C257.05 242.3, 313.15 177.03, 463.9 1.79 M203.84 307.05 C274.22 227.29, 343.66 150.17, 468.89 2.15 M203.84 307.05 C292.31 203.78, 380.57 104.61, 468.89 2.15 M209.49 306.66 C300.34 204.26, 388.03 103.29, 474.53 1.75 M209.49 306.66 C301.29 198.68, 394.76 93.74, 474.53 1.75 M214.47 307.02 C281.07 231, 344.73 160, 479.52 2.11 M214.47 307.02 C278.77 235.01, 341.39 163.66, 479.52 2.11 M220.12 306.62 C310.83 204.66, 398.63 104.14, 485.17 1.72 M220.12 306.62 C321.2 187.53, 424.81 69.94, 485.17 1.72 M225.1 306.98 C283.94 240.2, 339.91 173.2, 490.15 2.08 M225.1 306.98 C311.44 205.94, 402.09 103.63, 490.15 2.08 M230.09 307.34 C320.08 198.17, 412.05 91.49, 495.8 1.68 M230.09 307.34 C304.59 222.81, 378.82 137.54, 495.8 1.68 M235.73 306.95 C332.66 200.55, 430.96 90.25, 500.78 2.04 M235.73 306.95 C291.76 238.58, 349.61 172.29, 500.78 2.04 M240.72 307.31 C339.87 193.32, 440.65 79.1, 505.77 2.4 M240.72 307.31 C347.49 190.38, 451.84 68.91, 505.77 2.4 M246.36 306.91 C340.19 200.2, 434.82 91.45, 511.41 2.01 M246.36 306.91 C330.4 210.04, 413.7 114.22, 511.41 2.01 M251.35 307.27 C316.49 235.46, 377.41 164.51, 516.4 2.37 M251.35 307.27 C349.06 191.22, 448.01 77.99, 516.4 2.37 M256.99 306.88 C318.12 233.23, 384.46 157.38, 522.04 1.98 M256.99 306.88 C317.11 238.71, 377.21 168.59, 522.04 1.98 M261.98 307.24 C340.36 224.89, 411.26 140.9, 527.03 2.34 M261.98 307.24 C333.51 229.38, 401.07 150.39, 527.03 2.34 M267.62 306.84 C364.55 195.22, 463.45 81.43, 532.67 1.94 M267.62 306.84 C368.92 193.58, 465.91 80.32, 532.67 1.94 M272.61 307.2 C344.81 222.63, 417.52 136.92, 537.66 2.3 M272.61 307.2 C323.13 247.79, 375.63 187.46, 537.66 2.3 M278.25 306.81 C328.45 246.08, 387.65 181.56, 543.3 1.91 M278.25 306.81 C366.01 204.97, 453.95 104.49, 543.3 1.91 M283.24 307.17 C374.85 202.35, 464.93 98.92, 548.29 2.27 M283.24 307.17 C372.97 209.86, 459.34 109.64, 548.29 2.27 M288.88 306.77 C389.37 191.48, 488.58 79.96, 553.93 1.87 M288.88 306.77 C374.26 207.4, 459.34 107.56, 553.93 1.87 M293.87 307.13 C353.27 236.33, 414.24 163.53, 558.92 2.23 M293.87 307.13 C363.18 224.75, 434.06 143.2, 558.92 2.23 M299.51 306.74 C360.2 235.31, 419.95 165.72, 564.56 1.84 M299.51 306.74 C381.73 208.5, 464.32 112.89, 564.56 1.84 M304.5 307.1 C411.39 186, 513.5 62, 569.55 2.2 M304.5 307.1 C368.16 230.98, 436.45 154.94, 569.55 2.2 M310.14 306.71 C361.76 243.43, 419.52 179.82, 575.19 1.8 M310.14 306.71 C394.09 210.58, 479 112.95, 575.19 1.8 M315.13 307.07 C408.21 203.19, 498.13 99.55, 580.18 2.16 M315.13 307.07 C372.13 245.24, 426.05 182.21, 580.18 2.16 M320.78 306.67 C417.03 201.95, 510.17 94.75, 585.82 1.77 M320.78 306.67 C398.92 219.07, 474.8 130.67, 585.82 1.77 M325.76 307.03 C400.17 218.55, 479.78 129.88, 590.81 2.13 M325.76 307.03 C392.98 230.27, 455.17 157.22, 590.81 2.13 M331.41 306.64 C429.09 200.61, 522.34 89.97, 596.45 1.73 M331.41 306.64 C394.67 237.8, 455.52 168.48, 596.45 1.73 M336.39 307 C417.16 213.73, 497.33 119.7, 601.44 2.09 M336.39 307 C436.53 192, 532.34 80.04, 601.44 2.09 M341.38 307.36 C426.28 213.14, 511.64 113.77, 607.74 0.94 M341.38 307.36 C416.68 218.34, 494.6 129.04, 607.74 0.94 M347.02 306.96 C445.24 191.53, 543.96 74.92, 612.07 2.06 M347.02 306.96 C449.78 182.85, 555.84 63.54, 612.07 2.06 M352.01 307.32 C457.03 189.07, 558.41 69.24, 616.4 3.17 M352.01 307.32 C416.74 229.23, 484.53 150.45, 616.4 3.17 M357.65 306.93 C443.28 206.46, 529.82 107.01, 620.73 4.29 M357.65 306.93 C420.23 237.99, 480.84 167.54, 620.73 4.29 M362.64 307.29 C445.95 211.91, 531.94 110.52, 625.72 4.65 M362.64 307.29 C437.4 227.23, 509.8 143.7, 625.72 4.65 M368.28 306.89 C444.65 222.9, 517.99 131.93, 628.74 7.27 M368.28 306.89 C461.48 198.7, 558.32 86.92, 628.74 7.27 M373.27 307.25 C468.2 199.4, 556.92 98.02, 631.1 10.65 M373.27 307.25 C454.1 209.93, 537.91 112.53, 631.1 10.65 M378.91 306.86 C444.05 234.83, 508.26 158.58, 634.12 13.28 M378.91 306.86 C430.34 243.75, 483.29 183.54, 634.12 13.28 M383.9 307.22 C453.1 232.97, 517.27 152.91, 635.17 18.16 M383.9 307.22 C470.18 210.04, 552.82 113.56, 635.17 18.16 M389.54 306.82 C466.15 214.31, 548.86 123.57, 636.22 23.05 M389.54 306.82 C471.34 217.72, 551.77 124.9, 636.22 23.05 M394.53 307.18 C479.2 210.96, 566.35 112.56, 637.27 27.94 M394.53 307.18 C458.71 232.68, 525.72 154.25, 637.27 27.94 M400.17 306.79 C459.64 243.94, 514.44 179.38, 638.32 32.83 M400.17 306.79 C452.9 249.57, 503.88 189.52, 638.32 32.83 M405.16 307.15 C466.95 229.74, 534.3 153.03, 638.72 38.47 M405.16 307.15 C466.31 232.18, 530.73 159.01, 638.72 38.47 M410.8 306.75 C466.42 239.69, 525.38 174.33, 638.46 44.87 M410.8 306.75 C487.38 213.6, 568.63 122.41, 638.46 44.87 M415.79 307.12 C501.81 205.16, 588.24 106.95, 638.85 50.51 M415.79 307.12 C475.66 233.32, 541.32 157.7, 638.85 50.51 M421.43 306.72 C479.1 237.45, 541.81 171.84, 638.59 56.91 M421.43 306.72 C491.23 225.67, 559.74 149.02, 638.59 56.91 M426.42 307.08 C473.57 253.71, 521.51 199.05, 638.33 63.31 M426.42 307.08 C477 250.28, 526.53 196.04, 638.33 63.31 M432.06 306.69 C494.47 234, 561.59 156.55, 638.72 68.95 M432.06 306.69 C490.89 241.62, 544.18 177.55, 638.72 68.95 M437.05 307.05 C505.89 225.67, 570.7 147.7, 638.46 75.35 M437.05 307.05 C487.41 249.11, 539.05 190.67, 638.46 75.35 M442.69 306.65 C492.36 250.36, 540.81 195.17, 638.85 80.99 M442.69 306.65 C499.76 244.48, 554.85 183.23, 638.85 80.99 M447.68 307.01 C515.43 231.97, 582.01 148.78, 638.59 87.39 M447.68 307.01 C493.46 249.6, 546.33 191.63, 638.59 87.39 M453.32 306.62 C499.77 254.68, 549.24 197.24, 638.33 93.79 M453.32 306.62 C493.4 264.27, 532.37 217.36, 638.33 93.79 M458.31 306.98 C519.51 236.11, 583.18 166.68, 638.73 99.43 M458.31 306.98 C495.27 262.09, 530.7 222.04, 638.73 99.43 M463.3 307.34 C521.7 236.19, 584.17 166.75, 638.46 105.83 M463.3 307.34 C500.58 263.49, 541.12 219.71, 638.46 105.83 M468.94 306.94 C515.89 245.23, 567.62 188.52, 638.86 111.47 M468.94 306.94 C533.46 233.43, 594.74 164.48, 638.86 111.47 M473.93 307.3 C512.55 255.66, 556.37 203.56, 638.6 117.87 M473.93 307.3 C514.92 261.43, 557.71 212.16, 638.6 117.87 M479.57 306.91 C543.52 232.2, 603.64 161.72, 638.34 124.27 M479.57 306.91 C524.87 259.39, 570.25 208.26, 638.34 124.27 M484.56 307.27 C543.93 238.16, 600.81 167.16, 638.73 129.91 M484.56 307.27 C543 241.51, 599.11 175.48, 638.73 129.91 M490.2 306.87 C533.91 260.61, 578.15 209.4, 638.47 136.31 M490.2 306.87 C528.08 266.05, 562.09 228.3, 638.47 136.31 M495.19 307.23 C519.85 267.62, 549.25 233.74, 638.86 141.95 M495.19 307.23 C552.55 246.55, 609.92 182.41, 638.86 141.95 M500.83 306.84 C527.88 274.67, 556.95 240.99, 638.6 148.35 M500.83 306.84 C548.62 248.74, 595.56 193.68, 638.6 148.35 M505.82 307.2 C539.43 266.97, 578.03 224.81, 638.34 154.75 M505.82 307.2 C537.93 265.24, 574.42 225.13, 638.34 154.75 M511.46 306.8 C547.85 267.39, 582.02 228.12, 638.74 160.39 M511.46 306.8 C550.62 259.58, 589.31 215.41, 638.74 160.39 M516.45 307.16 C551.97 272.84, 574.97 238.92, 638.47 166.79 M516.45 307.16 C557.99 260.03, 597.04 212.48, 638.47 166.79 M522.09 306.77 C564.34 257.08, 605.37 212.76, 638.87 172.43 M522.09 306.77 C547.26 275.34, 570.44 245.34, 638.87 172.43 M527.08 307.13 C547.01 280.59, 574.26 257.66, 638.61 178.83 M527.08 307.13 C549.63 284.9, 571.95 255.22, 638.61 178.83 M532.72 306.74 C553.88 279.56, 579.59 251.07, 638.35 185.23 M532.72 306.74 C571.82 264.12, 608.75 221.82, 638.35 185.23 M537.71 307.1 C574.68 261.02, 615.3 212.85, 638.74 190.87 M537.71 307.1 C567.87 269.59, 601.07 232.35, 638.74 190.87 M543.35 306.7 C570.85 278.32, 595.01 246.85, 638.48 197.27 M543.35 306.7 C563.72 282.93, 586.81 257.99, 638.48 197.27 M548.34 307.06 C572.3 285.4, 591.29 261.9, 638.87 202.91 M548.34 307.06 C585.51 266.64, 619.3 226.48, 638.87 202.91 M553.98 306.67 C580.81 281.13, 602.28 254.44, 638.61 209.31 M553.98 306.67 C574.98 281.16, 597.05 259.04, 638.61 209.31 M558.97 307.03 C581.07 277.32, 610.47 246.29, 638.35 215.71 M558.97 307.03 C586.63 278.85, 609.15 250.09, 638.35 215.71 M564.61 306.63 C583.39 286.56, 603.29 264.09, 638.75 221.35 M564.61 306.63 C589.72 276.28, 620.99 242.28, 638.75 221.35 M569.6 306.99 C592.92 283.93, 614.66 254.02, 638.48 227.75 M569.6 306.99 C594.18 280.44, 617.74 253.62, 638.48 227.75 M574.59 307.35 C595.19 284.41, 620.31 259.93, 638.88 233.39 M574.59 307.35 C587.87 288.52, 601.12 272.37, 638.88 233.39 M580.23 306.96 C596.43 284.58, 611.13 269.35, 638.62 239.79 M580.23 306.96 C594.88 293.28, 607.75 276.35, 638.62 239.79 M585.22 307.32 C605.83 282.59, 622.82 265.49, 638.36 246.19 M585.22 307.32 C600.23 290.51, 615.1 273.19, 638.36 246.19 M590.86 306.92 C602.93 297.57, 613.98 277.55, 638.75 251.83 M590.86 306.92 C604.13 290.22, 619.73 274.51, 638.75 251.83 M595.85 307.28 C608.51 295.65, 614.53 285.84, 638.49 258.23 M595.85 307.28 C613.67 288.92, 630.02 268.43, 638.49 258.23 M601.49 306.89 C608.92 293.68, 618.6 283.35, 638.88 263.87 M601.49 306.89 C612 297.88, 618.7 285.6, 638.88 263.87 M607.13 306.49 C620.7 293.78, 629.38 282.54, 638.62 270.27 M607.13 306.49 C615.16 296.51, 623.35 289.45, 638.62 270.27 M614.09 304.59 C619.07 298.68, 633.47 286.87, 640.33 274.4 M614.09 304.59 C619.78 295.39, 627.87 288.74, 640.33 274.4 M620.39 303.44 C628.42 298.05, 634.63 291.04, 638.1 283.06 M620.39 303.44 C625.01 300.88, 628.32 295.54, 638.1 283.06" stroke="#ffffff" stroke-width="0.5" fill="none"></path><path d="M32 0 M32 0 C151.17 -3.22, 266.61 -2.91, 606 0 M32 0 C224.97 -0.94, 417.45 -1.41, 606 0 M606 0 C625.99 0.23, 634.12 14.24, 638 32 M606 0 C626.07 2.02, 641.17 7.57, 638 32 M638 32 C637.98 98.52, 636.6 160.59, 638 273 M638 32 C636.63 88.46, 636.92 145.64, 638 273 M638 273 C641.49 291.86, 626.42 302.86, 606 305 M638 273 C638.39 298.57, 628.43 304.04, 606 305 M606 305 C436.56 309.67, 265.77 309.46, 32 305 M606 305 C455.25 309.65, 303.44 308.74, 32 305 M32 305 C8.84 301.71, -0.07 291.4, 0 273 M32 305 C6.27 307.64, 3.67 298.4, 0 273 M0 273 C-5.98 198.3, -0.85 122.96, 0 32 M0 273 C-4.01 212.51, -3.61 154.6, 0 32 M0 32 C-3.31 7.71, 6.97 3.89, 32 0 M0 32 C2.99 9.29, 14.17 1.49, 32 0" stroke="#364fc7" stroke-width="1" fill="none"></path></g><g stroke-linecap="round" transform="translate(104 23.99999999999997) rotate(0 44 38)"><path d="M5.06 4.4 C5.06 4.4, 5.06 4.4, 5.06 4.4 M5.06 4.4 C5.06 4.4, 5.06 4.4, 5.06 4.4 M0.86 15.32 C5.63 12.67, 8.78 5.73, 12.01 2.49 M0.86 15.32 C5.04 11.71, 8.1 7.12, 12.01 2.49 M1.25 20.97 C6.35 16.28, 11.03 11, 18.97 0.59 M1.25 20.97 C8.66 13.95, 14.68 4.34, 18.97 0.59 M0.99 27.36 C8.57 17.87, 19.96 7.4, 24.61 0.19 M0.99 27.36 C6.56 21.35, 10.99 14.68, 24.61 0.19 M0.73 33.76 C6.46 25.68, 15.63 16.53, 29.6 0.55 M0.73 33.76 C7.58 26.64, 13.31 20.08, 29.6 0.55 M1.13 39.4 C11.56 28.62, 23.13 14.6, 35.24 0.16 M1.13 39.4 C7.72 31.58, 15.49 24.05, 35.24 0.16 M0.86 45.8 C12.48 34.69, 20.3 21.67, 40.23 0.52 M0.86 45.8 C15.79 29.29, 29.29 12.59, 40.23 0.52 M1.26 51.44 C17.53 32.19, 36.92 12, 45.87 0.12 M1.26 51.44 C14.14 37.94, 25.55 24.13, 45.87 0.12 M1 57.84 C16.1 40.37, 31.84 23.73, 50.86 0.48 M1 57.84 C12.08 44.48, 25.76 29.33, 50.86 0.48 M2.05 62.73 C23.32 35.92, 47.28 14.4, 56.5 0.09 M2.05 62.73 C19 44.48, 34.86 25.38, 56.5 0.09 M3.75 66.86 C20.76 46.22, 42.7 24.34, 61.49 0.45 M3.75 66.86 C20.66 47.37, 36.95 27.34, 61.49 0.45 M4.81 71.75 C24.63 46.04, 48.18 21.12, 66.48 0.81 M4.81 71.75 C27.84 45.47, 51.08 17.99, 66.48 0.81 M9.14 72.87 C33.07 48.34, 55.47 23.14, 72.12 0.42 M9.14 72.87 C25.23 53.1, 41.71 34.65, 72.12 0.42 M12.81 74.74 C29.56 55.65, 48.35 31.85, 75.79 2.29 M12.81 74.74 C27.06 57.24, 40.18 41.76, 75.79 2.29 M15.83 77.36 C39.53 50.27, 67.25 20.32, 79.47 4.15 M15.83 77.36 C37.27 50.41, 60.66 25.61, 79.47 4.15 M21.47 76.97 C43.59 50.16, 64.14 26.84, 83.8 5.27 M21.47 76.97 C45 48.95, 66.98 22.72, 83.8 5.27 M26.46 77.33 C50.01 49.06, 72.79 23.68, 86.16 8.65 M26.46 77.33 C42.38 57.94, 59.4 37.85, 86.16 8.65 M32.1 76.93 C46.65 59.66, 59.66 46.02, 88.52 12.03 M32.1 76.93 C43.85 63.47, 56.05 49.41, 88.52 12.03 M37.09 77.29 C54.89 55.16, 76.03 33.24, 88.92 17.67 M37.09 77.29 C47.52 65.69, 58.72 52.31, 88.92 17.67 M42.73 76.9 C53.44 65.39, 63.6 53.59, 90.63 21.8 M42.73 76.9 C59.05 58.64, 73.65 39.97, 90.63 21.8 M47.72 77.26 C58.58 62.14, 74.75 48.44, 91.02 27.45 M47.72 77.26 C56.41 67.73, 65.9 57.13, 91.02 27.45 M52.71 77.62 C59.61 67.95, 71.45 57.6, 90.76 33.85 M52.71 77.62 C66.84 61.66, 81.4 45.6, 90.76 33.85 M58.35 77.22 C68.1 65.61, 78.57 52.39, 90.5 40.24 M58.35 77.22 C71.19 63.34, 84.24 48.63, 90.5 40.24 M63.34 77.58 C70.88 69.94, 77.55 63.97, 90.89 45.89 M63.34 77.58 C74.84 64.63, 84.8 52.43, 90.89 45.89 M69.64 76.43 C76.62 70.02, 79.45 63.27, 90.63 52.28 M69.64 76.43 C73.56 71.93, 79.57 65.12, 90.63 52.28 M75.94 75.29 C78.88 69.48, 84.35 66.74, 87.75 61.7 M75.94 75.29 C80.15 70.26, 83.38 67.33, 87.75 61.7" stroke="#ffffff" stroke-width="0.5" fill="none"></path><path d="M19 0 M19 0 C31.44 1.23, 45.54 1.58, 69 0 M19 0 C36.17 -0.35, 52.15 -0.06, 69 0 M69 0 C81.27 0.96, 87.22 8.02, 88 19 M69 0 C83.23 0.84, 86.11 4.45, 88 19 M88 19 C88.82 30.68, 88.93 39.25, 88 57 M88 19 C88.14 33.39, 87.7 49.44, 88 57 M88 57 C86.37 69.59, 82.62 74.79, 69 76 M88 57 C89.05 71.43, 82.28 75.08, 69 76 M69 76 C49.55 73.99, 32.77 76.25, 19 76 M69 76 C56.91 76.22, 44.45 74.87, 19 76 M19 76 C5.27 76.68, -1.32 70.25, 0 57 M19 76 C5.64 76.11, 2.28 68.94, 0 57 M0 57 C-0.41 49.25, -1.11 40.21, 0 19 M0 57 C-0.02 48.66, -0.09 41.49, 0 19 M0 19 C-1 6.76, 8.28 1.41, 19 0 M0 19 C-0.31 5.58, 4.69 -0.23, 19 0" stroke="#5c940d" stroke-width="1" fill="none"></path></g><g transform="translate(112.5 40.99999999999997) rotate(0 35.5 21)"><text x="35.5" y="15" font-family="Virgil, Segoe UI Emoji" font-size="16px" fill="#000000" text-anchor="middle" style="white-space: pre;" direction="ltr">Particle </text><text x="35.5" y="36" font-family="Virgil, Segoe UI Emoji" font-size="16px" fill="#000000" text-anchor="middle" style="white-space: pre;" direction="ltr">(Go)</text></g><g stroke-linecap="round" transform="translate(28 109.00000000000003) rotate(0 44 37.99999999999997)"><path d="M5.06 4.4 C5.06 4.4, 5.06 4.4, 5.06 4.4 M5.06 4.4 C5.06 4.4, 5.06 4.4, 5.06 4.4 M0.86 15.32 C3.68 11.85, 7.2 9.44, 12.01 2.49 M0.86 15.32 C3.35 11.68, 7.03 8.34, 12.01 2.49 M1.25 20.97 C7.49 16.66, 10.91 8.71, 18.97 0.59 M1.25 20.97 C7.89 13.25, 14.88 5.68, 18.97 0.59 M0.99 27.36 C4.3 21.26, 9.53 16.48, 24.61 0.19 M0.99 27.36 C7.83 18.61, 17.6 9.02, 24.61 0.19 M0.73 33.76 C12.98 21.84, 23.26 9.41, 29.6 0.55 M0.73 33.76 C12.8 20.95, 24.41 8.57, 29.6 0.55 M1.13 39.4 C11.12 27.87, 24.82 15.4, 35.24 0.16 M1.13 39.4 C13.32 24.48, 27.28 10.62, 35.24 0.16 M0.86 45.8 C8.65 36.52, 17.5 26.9, 40.23 0.52 M0.86 45.8 C10.93 33.07, 21.41 21.9, 40.23 0.52 M1.26 51.44 C14.31 37.28, 27.74 19.87, 45.87 0.12 M1.26 51.44 C11.87 39.18, 22.62 28.16, 45.87 0.12 M1 57.84 C17.92 39.91, 32.87 21.2, 50.86 0.48 M1 57.84 C17.07 39.37, 31.14 21.51, 50.86 0.48 M2.05 62.73 C22.16 40.2, 40.53 17.12, 56.5 0.09 M2.05 62.73 C22.1 37.95, 43.88 14.5, 56.5 0.09 M3.75 66.86 C23.61 47.25, 38 27.55, 61.49 0.45 M3.75 66.86 C19.02 49.9, 32.88 32.17, 61.49 0.45 M4.81 71.75 C28.64 46.65, 50.35 19.88, 66.48 0.81 M4.81 71.75 C20.45 54.38, 36.75 36.76, 66.48 0.81 M9.14 72.87 C28.12 49.97, 51.68 26.99, 72.12 0.42 M9.14 72.87 C27.59 52.31, 44.75 31.13, 72.12 0.42 M12.81 74.74 C32.29 54.82, 50.5 31.37, 75.79 2.29 M12.81 74.74 C29.06 55.24, 46.72 35.26, 75.79 2.29 M15.83 77.36 C29.77 58.76, 45.36 41.56, 79.47 4.15 M15.83 77.36 C41.03 48.62, 64.24 21.79, 79.47 4.15 M21.47 76.97 C39.84 57.96, 55.87 38.71, 83.8 5.27 M21.47 76.97 C34.9 62.23, 48.18 46.49, 83.8 5.27 M26.46 77.33 C49.63 53.48, 71.26 24.61, 86.16 8.65 M26.46 77.33 C47.73 52.31, 70.02 27.2, 86.16 8.65 M32.1 76.93 C47.02 57.96, 59.39 42.28, 88.52 12.03 M32.1 76.93 C48.84 57.81, 64.61 38.9, 88.52 12.03 M37.09 77.29 C48.31 62.25, 63.28 46.11, 88.92 17.67 M37.09 77.29 C52.61 60.71, 67.77 41.89, 88.92 17.67 M42.73 76.9 C58.88 55.19, 77.4 37.58, 90.63 21.8 M42.73 76.9 C54.31 64.73, 65.02 50.34, 90.63 21.8 M47.72 77.26 C58.81 64.65, 69.01 54.95, 91.02 27.45 M47.72 77.26 C58.94 63.74, 71.75 50.02, 91.02 27.45 M52.71 77.62 C64.48 63.57, 77.14 49.49, 90.76 33.85 M52.71 77.62 C69.03 60.83, 83.06 42.38, 90.76 33.85 M58.35 77.22 C65.99 67.15, 73.98 61.38, 90.5 40.24 M58.35 77.22 C70.56 64.34, 81.82 48.68, 90.5 40.24 M63.34 77.58 C69.83 72.01, 75.21 62.46, 90.89 45.89 M63.34 77.58 C71.19 68.31, 77.79 59.86, 90.89 45.89 M69.64 76.43 C74.44 72.14, 79.3 66.21, 90.63 52.28 M69.64 76.43 C77.35 67.03, 85.69 58.25, 90.63 52.28 M75.94 75.29 C79.04 71.71, 83.04 67.26, 87.75 61.7 M75.94 75.29 C80.21 69.69, 85.65 64.17, 87.75 61.7" stroke="#ffffff" stroke-width="0.5" fill="none"></path><path d="M19 0 M19 0 C29.5 0.5, 45.68 -0.74, 69 0 M19 0 C30.03 1.16, 42.28 0.16, 69 0 M69 0 C79.97 -1.18, 86.24 7.51, 88 19 M69 0 C81.18 -1.96, 87.55 8.14, 88 19 M88 19 C86.86 26.22, 89.02 35.91, 88 57 M88 19 C87.49 32.11, 88.54 46.83, 88 57 M88 57 C86 71.58, 83.48 76.07, 69 76 M88 57 C86.4 71.78, 81.75 75.96, 69 76 M69 76 C54.98 76.34, 38.25 74.69, 19 76 M69 76 C56.86 75.3, 45.82 75.82, 19 76 M19 76 C4.45 77.08, -1.84 70.78, 0 57 M19 76 C4.41 78.27, -0.74 67.44, 0 57 M0 57 C-0.34 50.01, -1.37 38.06, 0 19 M0 57 C-0.66 46.66, -0.23 36.7, 0 19 M0 19 C0.83 5.16, 4.56 -1.98, 19 0 M0 19 C2.29 7.55, 4.73 -1.93, 19 0" stroke="#5c940d" stroke-width="1" fill="none"></path></g><g transform="translate(36.5 126.00000000000003) rotate(0 35.5 21)"><text x="35.5" y="15" font-family="Virgil, Segoe UI Emoji" font-size="16px" fill="#000000" text-anchor="middle" style="white-space: pre;" direction="ltr">Particle </text><text x="35.5" y="36" font-family="Virgil, Segoe UI Emoji" font-size="16px" fill="#000000" text-anchor="middle" style="white-space: pre;" direction="ltr">(Go)</text></g><g stroke-linecap="round" transform="translate(102 199.99999999999997) rotate(0 44 38)"><path d="M5.06 4.4 C5.06 4.4, 5.06 4.4, 5.06 4.4 M5.06 4.4 C5.06 4.4, 5.06 4.4, 5.06 4.4 M0.86 15.32 C4.58 10.11, 8.93 8.04, 12.01 2.49 M0.86 15.32 C4.43 11.5, 8.04 6.53, 12.01 2.49 M1.25 20.97 C4.29 16.5, 10.24 9.28, 18.97 0.59 M1.25 20.97 C7.1 13.25, 15.01 4.71, 18.97 0.59 M0.99 27.36 C9.91 16.82, 15.04 8.73, 24.61 0.19 M0.99 27.36 C9.35 19.17, 16.95 8.7, 24.61 0.19 M0.73 33.76 C13.27 22.58, 21.36 10.24, 29.6 0.55 M0.73 33.76 C11.03 21.4, 22.76 8.63, 29.6 0.55 M1.13 39.4 C12.18 26.6, 19.12 17.98, 35.24 0.16 M1.13 39.4 C10.01 29, 18.75 19.56, 35.24 0.16 M0.86 45.8 C11.16 33.11, 25.95 17.98, 40.23 0.52 M0.86 45.8 C16.04 28.36, 31.07 10.12, 40.23 0.52 M1.26 51.44 C10.67 40.72, 18.27 30.89, 45.87 0.12 M1.26 51.44 C9.88 41.38, 20.11 30.13, 45.87 0.12 M1 57.84 C20.3 33.98, 39.82 14.63, 50.86 0.48 M1 57.84 C15.99 41.03, 30.7 24.24, 50.86 0.48 M2.05 62.73 C20.22 39.76, 41.85 18.91, 56.5 0.09 M2.05 62.73 C19.74 42.04, 38.35 20.49, 56.5 0.09 M3.75 66.86 C24.52 43.09, 42.64 23.47, 61.49 0.45 M3.75 66.86 C17.54 50.12, 31.71 34.07, 61.49 0.45 M4.81 71.75 C22.58 52.62, 38.94 30.41, 66.48 0.81 M4.81 71.75 C18.5 54.05, 33.24 38.64, 66.48 0.81 M9.14 72.87 C23.77 58.07, 37.79 37.64, 72.12 0.42 M9.14 72.87 C27.53 52.38, 44.73 32.1, 72.12 0.42 M12.81 74.74 C31.1 53.55, 51.48 31.85, 75.79 2.29 M12.81 74.74 C32.22 50.67, 51.89 27.6, 75.79 2.29 M15.83 77.36 C41.86 50.13, 67.65 18.03, 79.47 4.15 M15.83 77.36 C34.35 53.66, 53.86 31.85, 79.47 4.15 M21.47 76.97 C33.92 60.32, 47.73 45.44, 83.8 5.27 M21.47 76.97 C34.7 60.68, 48.84 45.13, 83.8 5.27 M26.46 77.33 C42.84 59, 62.07 38.91, 86.16 8.65 M26.46 77.33 C47.18 54.2, 66.82 31.24, 86.16 8.65 M32.1 76.93 C49.81 56.8, 65.54 41.29, 88.52 12.03 M32.1 76.93 C46.9 60.42, 59.43 44.85, 88.52 12.03 M37.09 77.29 C50.01 63.89, 57.64 54.32, 88.92 17.67 M37.09 77.29 C49.72 62.05, 62.31 46.91, 88.92 17.67 M42.73 76.9 C50.86 64.93, 64.29 51.65, 90.63 21.8 M42.73 76.9 C54.74 63.36, 68.26 48.97, 90.63 21.8 M47.72 77.26 C56.46 68.51, 68.02 54.21, 91.02 27.45 M47.72 77.26 C63.71 58.45, 81.57 37.8, 91.02 27.45 M52.71 77.62 C66.27 65, 77.34 49.53, 90.76 33.85 M52.71 77.62 C61.14 66.53, 70.4 56.95, 90.76 33.85 M58.35 77.22 C65.88 68.23, 73.36 61.65, 90.5 40.24 M58.35 77.22 C65.97 69.5, 72.46 61.47, 90.5 40.24 M63.34 77.58 C68.46 69.91, 74.2 64.33, 90.89 45.89 M63.34 77.58 C70.43 67.43, 80.41 59.63, 90.89 45.89 M69.64 76.43 C76.47 72.25, 81.39 67.26, 90.63 52.28 M69.64 76.43 C73.63 70.81, 79.14 65.31, 90.63 52.28 M75.94 75.29 C81.12 72.01, 81.39 67.42, 87.75 61.7 M75.94 75.29 C79.15 71.88, 81.92 67.33, 87.75 61.7" stroke="#ffffff" stroke-width="0.5" fill="none"></path><path d="M19 0 M19 0 C39.69 -2.27, 55.04 -0.7, 69 0 M19 0 C39.09 0.11, 57.69 0.73, 69 0 M69 0 C80.51 1.18, 86.17 8.11, 88 19 M69 0 C82.44 1.62, 90.22 7.62, 88 19 M88 19 C86.96 29, 86.08 35.98, 88 57 M88 19 C88.85 27.42, 87.69 36.1, 88 57 M88 57 C86.38 68.07, 80.22 74.38, 69 76 M88 57 C88.59 68.75, 83.71 76.8, 69 76 M69 76 C56.38 74.67, 42.64 77.67, 19 76 M69 76 C55.25 75.71, 39.36 76.81, 19 76 M19 76 C5 76.83, -0.85 71.5, 0 57 M19 76 C7.19 75.63, -0.46 68.81, 0 57 M0 57 C1.23 47.55, -0.74 35.85, 0 19 M0 57 C0.35 49.51, -0.18 40.14, 0 19 M0 19 C-0.82 6.25, 5.57 0.74, 19 0 M0 19 C-2.27 6.33, 7.52 0, 19 0" stroke="#5c940d" stroke-width="1" fill="none"></path></g><g transform="translate(110.5 216.99999999999997) rotate(0 35.5 21)"><text x="35.5" y="15" font-family="Virgil, Segoe UI Emoji" font-size="16px" fill="#000000" text-anchor="middle" style="white-space: pre;" direction="ltr">Particle </text><text x="35.5" y="36" font-family="Virgil, Segoe UI Emoji" font-size="16px" fill="#000000" text-anchor="middle" style="white-space: pre;" direction="ltr">(Go)</text></g><g stroke-linecap="round" transform="translate(221 115.99999999999997) rotate(0 74 36)"><path d="M4.79 4.16 C4.79 4.16, 4.79 4.16, 4.79 4.16 M4.79 4.16 C4.79 4.16, 4.79 4.16, 4.79 4.16 M1.25 14.34 C5.06 13.23, 4.43 7.84, 11.75 2.26 M1.25 14.34 C3.72 11.34, 7.07 7.24, 11.75 2.26 M0.99 20.73 C5.38 15.38, 13.98 8, 18.7 0.36 M0.99 20.73 C7.41 12.08, 14.5 5.31, 18.7 0.36 M1.38 26.38 C6.24 20.06, 12.66 14.67, 23.69 0.72 M1.38 26.38 C6.74 18.94, 12.73 13.03, 23.69 0.72 M1.12 32.77 C7.17 22.91, 15.65 15.65, 29.33 0.32 M1.12 32.77 C7.76 25.09, 14.11 18.1, 29.33 0.32 M0.86 39.17 C9.46 28.67, 19.52 18.65, 34.32 0.68 M0.86 39.17 C11.83 25.8, 22.7 13.21, 34.32 0.68 M1.25 44.82 C12.73 27.79, 27.58 14.73, 39.96 0.29 M1.25 44.82 C12.8 30, 26.21 15.52, 39.96 0.29 M0.99 51.21 C17.33 34.18, 30.05 16.12, 44.95 0.65 M0.99 51.21 C14.1 37.27, 26.36 21.37, 44.95 0.65 M1.39 56.86 C13.78 42.6, 29.39 24.29, 50.59 0.25 M1.39 56.86 C13.98 42.62, 27.32 27.76, 50.59 0.25 M3.09 60.99 C16.32 42.92, 33.65 24.03, 55.58 0.61 M3.09 60.99 C16.78 46.85, 28.96 32.38, 55.58 0.61 M4.14 65.88 C20.64 45.86, 38.31 27.28, 61.22 0.22 M4.14 65.88 C26.65 41.6, 48.53 15.26, 61.22 0.22 M6.51 69.26 C30.11 41.34, 54.16 15.44, 66.21 0.58 M6.51 69.26 C23.07 50.81, 38.32 32.65, 66.21 0.58 M9.53 71.88 C29.12 48.4, 52.6 21.2, 71.85 0.18 M9.53 71.88 C24.99 53.84, 41.19 36.84, 71.85 0.18 M13.86 73 C36.56 50.03, 56.9 23.06, 76.84 0.54 M13.86 73 C35.45 46.72, 58.32 22.03, 76.84 0.54 M18.84 73.36 C40.46 49.98, 58.94 26.01, 82.48 0.15 M18.84 73.36 C44.26 44.08, 69.92 14.93, 82.48 0.15 M24.49 72.96 C43.65 49.94, 67.57 24.97, 87.47 0.51 M24.49 72.96 C42.77 52.29, 60.05 31.65, 87.47 0.51 M29.47 73.32 C46.16 55.12, 59.36 40.53, 92.46 0.87 M29.47 73.32 C54.31 45.19, 79.62 16.93, 92.46 0.87 M35.12 72.93 C51.32 56.71, 65.68 39.3, 98.1 0.48 M35.12 72.93 C57.38 47.24, 80.78 21.19, 98.1 0.48 M40.1 73.29 C56.47 54.52, 69.36 37.17, 103.09 0.84 M40.1 73.29 C61.59 48.7, 82.57 24.92, 103.09 0.84 M45.75 72.89 C57.62 59.32, 71.33 44.08, 108.73 0.44 M45.75 72.89 C59.92 56.14, 73.61 39.5, 108.73 0.44 M50.73 73.25 C76.14 44.78, 101.28 17.27, 113.72 0.8 M50.73 73.25 C63.96 58.9, 76.04 43.85, 113.72 0.8 M56.38 72.86 C72.36 54.43, 84.64 38.4, 119.36 0.41 M56.38 72.86 C72.29 54.13, 87.18 37.09, 119.36 0.41 M61.36 73.22 C83.48 48.68, 101.79 27.51, 124.35 0.77 M61.36 73.22 C80.85 53.14, 97.38 31.92, 124.35 0.77 M67.01 72.82 C84.32 52.51, 99.27 33.25, 129.99 0.37 M67.01 72.82 C80.08 57.67, 94.24 41.12, 129.99 0.37 M71.99 73.18 C93.28 50.99, 115.59 24.6, 134.32 1.49 M71.99 73.18 C93.25 49.45, 114.82 25.92, 134.32 1.49 M77.64 72.79 C94.29 52.38, 109.41 35.19, 139.31 1.85 M77.64 72.79 C99.81 46.81, 123.68 20.52, 139.31 1.85 M82.62 73.15 C103.51 49.35, 123.16 29.5, 142.98 3.72 M82.62 73.15 C96.86 55.41, 113.22 38.92, 142.98 3.72 M88.27 72.76 C106.18 53.96, 123.08 32.07, 145.35 7.1 M88.27 72.76 C108.93 49.5, 129.52 23.7, 145.35 7.1 M93.26 73.12 C106.72 56.99, 123.61 41.93, 148.36 9.72 M93.26 73.12 C111.8 49.2, 132.79 27.66, 148.36 9.72 M98.9 72.72 C116.69 51.97, 134.43 30.6, 149.41 14.61 M98.9 72.72 C117.78 50.37, 135.6 29.88, 149.41 14.61 M103.89 73.08 C118.02 60.81, 127.9 44.51, 149.15 21.01 M103.89 73.08 C121.24 53.67, 138.03 34.19, 149.15 21.01 M109.53 72.69 C125.26 54.18, 141.49 36.5, 148.89 27.4 M109.53 72.69 C121.51 59.47, 132.16 46.11, 148.89 27.4 M114.52 73.05 C121.39 64.95, 131.21 55.98, 149.29 33.05 M114.52 73.05 C127.47 58.12, 141.36 42, 149.29 33.05 M120.16 72.65 C130.17 60.23, 140.14 48.95, 149.02 39.44 M120.16 72.65 C126.17 66.4, 132.77 59.33, 149.02 39.44 M125.15 73.01 C132.8 63.81, 138.97 56.93, 149.42 45.09 M125.15 73.01 C132.91 64.96, 139.67 57.14, 149.42 45.09 M130.79 72.62 C135.11 67.11, 140.14 63.19, 149.16 51.49 M130.79 72.62 C136.37 65.72, 143.78 57.29, 149.16 51.49 M137.09 71.47 C141.46 66.85, 147.26 59.52, 150.21 56.37 M137.09 71.47 C139.36 68.89, 141.96 64, 150.21 56.37" stroke="#ffffff" stroke-width="0.5" fill="none"></path><path d="M18 0 M18 0 C48.22 0.59, 76.31 0.81, 130 0 M18 0 C43.56 -1.16, 66.76 -0.44, 130 0 M130 0 C142.46 1.23, 149.56 5.51, 148 18 M130 0 C140.37 -1.5, 146.57 4.29, 148 18 M148 18 C146.62 28.13, 146.84 39.36, 148 54 M148 18 C147.71 31.49, 148.55 46.8, 148 54 M148 54 C148.7 67.39, 141.06 71.96, 130 72 M148 54 C147.78 64.19, 142.29 69.94, 130 72 M130 72 C86.51 70.3, 42.49 70.3, 18 72 M130 72 C97.05 71, 63.2 70.84, 18 72 M18 72 C6.98 71.96, 1.54 66.74, 0 54 M18 72 C5.5 70.13, -1.42 66.77, 0 54 M0 54 C0.46 39.16, 0.81 26.68, 0 18 M0 54 C0.07 40.04, -0.68 27.07, 0 18 M0 18 C1.07 6.23, 4.75 -1.31, 18 0 M0 18 C-1.15 4.31, 4.02 0.68, 18 0" stroke="#364fc7" stroke-width="1" fill="none"></path></g><g transform="translate(236.5 130.99999999999997) rotate(0 58.5 21)"><text x="58.5" y="15" font-family="Virgil, Segoe UI Emoji" font-size="16px" fill="#000000" text-anchor="middle" style="white-space: pre;" direction="ltr">Apache Kafka </text><text x="58.5" y="36" font-family="Virgil, Segoe UI Emoji" font-size="16px" fill="#000000" text-anchor="middle" style="white-space: pre;" direction="ltr">Cluster</text></g><g stroke-linecap="round"><g transform="translate(180.83954766464024 105.99999999999997) rotate(0 14.936640366611215 8.21717242766772)"><path d="M1.01 -0.55 C5.98 2.2, 25.09 13.15, 29.78 15.85 M0.09 1.78 C4.86 4.71, 23.39 14.53, 28.64 16.98" stroke="#364fc7" stroke-width="1" fill="none"></path></g><g transform="translate(180.83954766464024 105.99999999999997) rotate(0 14.936640366611215 8.21717242766772)"><path d="M10.75 14.43 C15.56 14.04, 20.47 14.8, 27.24 17.42 M11.1 14.41 C16.06 15.38, 19.87 15.36, 29.35 16.87" stroke="#364fc7" stroke-width="1" fill="none"></path></g><g transform="translate(180.83954766464024 105.99999999999997) rotate(0 14.936640366611215 8.21717242766772)"><path d="M16.04 3.91 C19.2 6.73, 22.51 10.66, 27.24 17.42 M16.39 3.88 C20.07 7.62, 22.5 10.34, 29.35 16.87" stroke="#364fc7" stroke-width="1" fill="none"></path></g></g><mask></mask><g stroke-linecap="round"><g transform="translate(128.6435858010687 150.6003986570798) rotate(0 39.473711398616416 -0.4816323609464064)"><path d="M-1 -0.49 C12.22 -0.52, 66.38 -0.35, 79.95 -0.46 M0.67 -1.8 C13.67 -1.63, 65.77 0.62, 78.98 0.84" stroke="#364fc7" stroke-width="1" fill="none"></path></g><g transform="translate(128.6435858010687 150.6003986570798) rotate(0 39.473711398616416 -0.4816323609464064)"><path d="M49.66 10.13 C59.76 7.89, 68.58 3.85, 80.01 0.84 M51.42 10.06 C58.16 8.83, 64.48 5.57, 78.73 1.71" stroke="#364fc7" stroke-width="1" fill="none"></path></g><g transform="translate(128.6435858010687 150.6003986570798) rotate(0 39.473711398616416 -0.4816323609464064)"><path d="M50.3 -10.38 C60.12 -5.41, 68.71 -2.24, 80.01 0.84 M52.06 -10.45 C58.54 -6.61, 64.7 -4.8, 78.73 1.71" stroke="#364fc7" stroke-width="1" fill="none"></path></g></g><mask></mask><g stroke-linecap="round"><g transform="translate(192.7596879483301 196.4123251358496) rotate(0 8.880861841539001 -3.433649182227896)"><path d="M0.77 -0.53 C3.88 -1.88, 15.07 -7.53, 18.05 -8.67 M-0.29 1.81 C2.74 0.68, 14.14 -5.46, 17.25 -7.3" stroke="#364fc7" stroke-width="1" fill="none"></path></g><g transform="translate(192.7596879483301 196.4123251358496) rotate(0 8.880861841539001 -3.433649182227896)"><path d="M10.41 0.36 C12.21 -1.03, 14.84 -3.17, 17.08 -7.48 M10.82 0.4 C13.15 -2.21, 14.95 -5.13, 17.3 -7.01" stroke="#364fc7" stroke-width="1" fill="none"></path></g><g transform="translate(192.7596879483301 196.4123251358496) rotate(0 8.880861841539001 -3.433649182227896)"><path d="M7.13 -5.49 C9.72 -5.45, 13.17 -6.13, 17.08 -7.48 M7.54 -5.46 C11.05 -6.05, 13.97 -6.97, 17.3 -7.01" stroke="#364fc7" stroke-width="1" fill="none"></path></g></g><mask></mask><g stroke-linecap="round" transform="translate(413 116.99999999999997) rotate(0 42 35.5)"><path d="M2.23 7.24 C2.23 7.24, 2.23 7.24, 2.23 7.24 M2.23 7.24 C2.23 7.24, 2.23 7.24, 2.23 7.24 M1.31 14.39 C3.95 12.17, 7.05 6.8, 9.84 4.58 M1.31 14.39 C3.4 12.46, 4.81 9.28, 9.84 4.58 M1.05 20.79 C6.51 17.38, 9.55 13.76, 18.77 0.41 M1.05 20.79 C6.5 14, 11.05 8.75, 18.77 0.41 M1.45 26.43 C8.06 14.97, 18.92 6.28, 23.75 0.77 M1.45 26.43 C8.74 18.36, 16.29 10.44, 23.75 0.77 M1.18 32.83 C8.21 24.42, 17.45 16.51, 29.4 0.38 M1.18 32.83 C8.45 23.35, 16.82 14.64, 29.4 0.38 M1.58 38.47 C10.69 28.62, 14.77 20.37, 34.38 0.74 M1.58 38.47 C11.03 28.18, 18.57 18.73, 34.38 0.74 M1.32 44.87 C12.09 35.16, 20.15 25.5, 39.37 1.1 M1.32 44.87 C12.61 33.04, 22.85 19.71, 39.37 1.1 M1.06 51.27 C12.32 36.53, 23.07 24.91, 45.01 0.7 M1.06 51.27 C15.72 35.12, 31.63 17.04, 45.01 0.7 M0.79 57.67 C15.02 41.6, 30.34 23.26, 50 1.06 M0.79 57.67 C14.57 41.48, 26.94 26.53, 50 1.06 M2.5 61.8 C19.8 38.72, 40 18.36, 55.64 0.67 M2.5 61.8 C18.58 42.94, 35.52 24.82, 55.64 0.67 M4.21 65.93 C23.64 46.66, 37.64 26.25, 60.63 1.03 M4.21 65.93 C15.68 53.31, 28.08 39.14, 60.63 1.03 M7.23 68.56 C22.79 50.17, 39.63 32.49, 66.27 0.63 M7.23 68.56 C20.59 55.46, 31.81 39.69, 66.27 0.63 M10.9 70.43 C28.97 50.53, 42.12 32.66, 71.26 0.99 M10.9 70.43 C30.87 48.65, 50.3 24.83, 71.26 0.99 M15.23 71.54 C25.5 57.28, 39.85 41.62, 74.93 2.86 M15.23 71.54 C34.9 49.64, 54.6 25.54, 74.93 2.86 M20.22 71.9 C39.27 48.58, 60.42 27.63, 78.61 4.73 M20.22 71.9 C32.99 55.72, 48.09 40.09, 78.61 4.73 M25.21 72.26 C43.49 49.97, 66.78 26.71, 82.28 6.6 M25.21 72.26 C42.06 54.16, 57.93 35.17, 82.28 6.6 M30.85 71.87 C42.73 58.78, 56.02 43.36, 83.99 10.74 M30.85 71.87 C43.7 57.35, 57.66 42.79, 83.99 10.74 M35.84 72.23 C54.01 52.39, 70.41 33.97, 84.39 16.38 M35.84 72.23 C52.25 52.71, 68.47 34.21, 84.39 16.38 M41.48 71.83 C57.46 50.78, 76.99 35.33, 86.75 19.76 M41.48 71.83 C50.77 60.53, 59.68 50.47, 86.75 19.76 M46.47 72.19 C57.27 56.59, 72.64 43.21, 86.49 26.16 M46.47 72.19 C55.2 61.81, 65.35 49.51, 86.49 26.16 M52.11 71.8 C65.67 58.06, 80.92 39.98, 86.23 32.55 M52.11 71.8 C62.02 60.98, 71.64 48.57, 86.23 32.55 M57.1 72.16 C63.91 62.83, 74.73 55.34, 86.62 38.2 M57.1 72.16 C62.84 65.37, 70.26 58.15, 86.62 38.2 M62.74 71.76 C68.55 65.37, 73.18 60.68, 86.36 44.6 M62.74 71.76 C67.32 65.16, 73.19 59.53, 86.36 44.6 M67.73 72.12 C75.59 63.11, 81.5 57.87, 86.1 50.99 M67.73 72.12 C74.5 63.51, 81.04 55.96, 86.1 50.99 M74.68 70.22 C78.45 66.25, 80.68 62.17, 85.18 58.15 M74.68 70.22 C78.37 66.15, 83.25 60.31, 85.18 58.15" stroke="#fd7e14" stroke-width="0.5" fill="none"></path><path d="M17.75 0 M17.75 0 C38.75 0.49, 54.45 -1.3, 66.25 0 M17.75 0 C33.06 -0.3, 46.73 -0.6, 66.25 0 M66.25 0 C79.26 -0.05, 83.14 4.67, 84 17.75 M66.25 0 C78.43 0.09, 82.12 4.3, 84 17.75 M84 17.75 C85.94 30.95, 84.07 41.33, 84 53.25 M84 17.75 C84.71 32.66, 83.97 45.76, 84 53.25 M84 53.25 C84.29 63.63, 80.01 69.75, 66.25 71 M84 53.25 C84.09 67.18, 77.93 70.68, 66.25 71 M66.25 71 C56.68 72.77, 48.32 69.76, 17.75 71 M66.25 71 C53.48 70.56, 39.79 70.42, 17.75 71 M17.75 71 C5.3 72.09, 0.37 66.93, 0 53.25 M17.75 71 C6.39 70.43, 0.88 66.95, 0 53.25 M0 53.25 C0.55 44.16, 0.1 37.07, 0 17.75 M0 53.25 C-0.1 40.73, -0.7 27.34, 0 17.75 M0 17.75 C-0.03 6.11, 7.25 0.31, 17.75 0 M0 17.75 C-1.07 6.47, 7.37 0.19, 17.75 0" stroke="#e67700" stroke-width="1" fill="none"></path></g><g transform="translate(420.5 141.99999999999997) rotate(0 34.5 10.5)"><text x="34.5" y="15" font-family="Virgil, Segoe UI Emoji" font-size="16px" fill="#000000" text-anchor="middle" style="white-space: pre;" direction="ltr">App (Go)</text></g><g stroke-linecap="round"><g transform="translate(380 153.99999999999997) rotate(0 12.887101547624866 -1.0164428015425813)"><path d="M1.09 -0.5 C5.41 -0.6, 21.29 -1.33, 25.57 -1.16 M0.2 -1.8 C4.36 -1.75, 20.03 -0.27, 24.4 -0.23" stroke="#e67700" stroke-width="1" fill="none"></path></g><g transform="translate(380 153.99999999999997) rotate(0 12.887101547624866 -1.0164428015425813)"><path d="M11.42 3.08 C14.08 3.27, 19.25 2.69, 23.86 -0.09 M12.01 3.15 C17.34 1.61, 22.4 0.18, 24.62 -0.42" stroke="#e67700" stroke-width="1" fill="none"></path></g><g transform="translate(380 153.99999999999997) rotate(0 12.887101547624866 -1.0164428015425813)"><path d="M11.91 -5.8 C14.39 -3.21, 19.43 -1.4, 23.86 -0.09 M12.49 -5.73 C17.72 -3.72, 22.58 -1.6, 24.62 -0.42" stroke="#e67700" stroke-width="1" fill="none"></path></g></g><mask></mask><g stroke-linecap="round" transform="translate(416 214.99999999999997) rotate(0 106.5 31.5)"><path d="M2.34 6.01 C2.34 6.01, 2.34 6.01, 2.34 6.01 M2.34 6.01 C2.34 6.01, 2.34 6.01, 2.34 6.01 M1.42 13.16 C2.48 10.19, 5.58 8.85, 8.64 4.86 M1.42 13.16 C3.42 10.8, 5.3 8.87, 8.64 4.86 M1.16 19.56 C5.24 16.47, 11.93 9.26, 16.91 1.45 M1.16 19.56 C6.01 16.15, 8.45 10.31, 16.91 1.45 M1.56 25.2 C5.62 19.79, 13.81 12.62, 22.55 1.05 M1.56 25.2 C7.41 18.84, 11.46 14.4, 22.55 1.05 M1.29 31.6 C7.14 24.16, 16.03 16.13, 27.54 1.41 M1.29 31.6 C7.45 24.65, 12.62 18.75, 27.54 1.41 M1.69 37.24 C11.25 25, 20.47 16.45, 33.18 1.02 M1.69 37.24 C11.36 23.85, 23.21 12.94, 33.18 1.02 M1.43 43.64 C14.15 27.68, 31.5 9.46, 38.17 1.38 M1.43 43.64 C15.81 28, 29.42 13.03, 38.17 1.38 M0.51 50.79 C9.8 37.97, 21.73 27.95, 43.81 0.98 M0.51 50.79 C13.16 36.9, 25.56 22.03, 43.81 0.98 M2.22 54.93 C18.21 38.13, 30.84 20.89, 48.8 1.34 M2.22 54.93 C14.17 39.34, 27.09 25.56, 48.8 1.34 M3.92 59.06 C25.22 36.07, 43.26 12.53, 53.78 1.7 M3.92 59.06 C18.57 40.45, 34.09 24.06, 53.78 1.7 M6.94 61.68 C22 43.92, 37.03 28.84, 59.43 1.31 M6.94 61.68 C19.28 46.83, 33.22 32.74, 59.43 1.31 M10.62 63.55 C27.25 47.27, 41.17 30.39, 64.41 1.67 M10.62 63.55 C23.38 49.14, 34.93 36.7, 64.41 1.67 M15.6 63.91 C38.28 39.64, 58.07 18.71, 70.06 1.27 M15.6 63.91 C34.73 43.41, 52.27 22.27, 70.06 1.27 M21.25 63.52 C39.85 42.13, 55.94 23.34, 75.04 1.63 M21.25 63.52 C32.65 51.43, 42.26 38.39, 75.04 1.63 M26.23 63.88 C47.44 40.85, 64.44 17.29, 80.69 1.24 M26.23 63.88 C41.51 46.15, 57.55 27.24, 80.69 1.24 M31.88 63.49 C47.94 43.74, 65.13 27.18, 85.67 1.6 M31.88 63.49 C45.66 48.42, 58.63 31.17, 85.67 1.6 M36.86 63.85 C50.83 48.68, 64.28 29.92, 91.32 1.2 M36.86 63.85 C49.12 48.22, 62.75 33.87, 91.32 1.2 M42.51 63.45 C56.25 51.77, 68.1 37.76, 96.3 1.56 M42.51 63.45 C58.71 45.9, 74.07 28.02, 96.3 1.56 M47.49 63.81 C60.71 48.79, 75.57 30.06, 101.29 1.92 M47.49 63.81 C67.61 39.65, 89.24 15.63, 101.29 1.92 M53.14 63.42 C73.4 38.41, 94.29 15.22, 106.93 1.53 M53.14 63.42 C68.1 46.68, 83.76 29.61, 106.93 1.53 M58.12 63.78 C77.16 42.09, 93 23.92, 111.92 1.89 M58.12 63.78 C75.93 43.95, 93.79 23.87, 111.92 1.89 M63.11 64.14 C77.68 46.75, 94.04 30.34, 117.56 1.5 M63.11 64.14 C81.2 44.34, 98.6 23.62, 117.56 1.5 M68.75 63.74 C86.35 43.41, 101.7 23.4, 122.55 1.86 M68.75 63.74 C86.64 43.25, 102.44 23.5, 122.55 1.86 M73.74 64.1 C94.25 40.44, 113.26 17.3, 128.19 1.46 M73.74 64.1 C89.98 45.52, 105.8 24.54, 128.19 1.46 M79.38 63.71 C94.42 49.14, 105 34.9, 133.18 1.82 M79.38 63.71 C90.96 51.22, 100.9 37.32, 133.18 1.82 M84.37 64.07 C100.9 44.68, 117.69 27.55, 138.17 2.18 M84.37 64.07 C100.92 43.96, 117.99 25.94, 138.17 2.18 M90.01 63.67 C107.54 41.78, 125.84 21.82, 143.81 1.79 M90.01 63.67 C106.62 44.95, 124.72 24.35, 143.81 1.79 M95 64.03 C113.87 44.99, 131.93 23.14, 148.8 2.15 M95 64.03 C116.52 39.2, 137.33 15.42, 148.8 2.15 M99.99 64.39 C112.12 48.39, 125.37 34.2, 154.44 1.75 M99.99 64.39 C120.18 40.88, 138.64 19.59, 154.44 1.75 M105.63 64 C124.62 43.26, 139.55 22.53, 159.43 2.11 M105.63 64 C125.69 40.65, 144.71 18.35, 159.43 2.11 M110.62 64.36 C122.95 49.48, 137.69 30.15, 165.07 1.72 M110.62 64.36 C127.99 45.21, 144.99 25.82, 165.07 1.72 M116.26 63.96 C136.12 43, 154.08 21.3, 170.06 2.08 M116.26 63.96 C130.61 48.26, 144.37 32.71, 170.06 2.08 M121.25 64.32 C131.41 52.45, 143.75 36.54, 175.7 1.68 M121.25 64.32 C139.97 43.76, 157.67 23.89, 175.7 1.68 M126.89 63.93 C149.42 39.5, 169.19 13.24, 180.69 2.04 M126.89 63.93 C140.18 48.06, 153.75 33.04, 180.69 2.04 M131.88 64.29 C145.52 47.66, 159.23 33.84, 185.68 2.4 M131.88 64.29 C147.14 46.24, 161.34 29.57, 185.68 2.4 M137.52 63.9 C157.54 39.49, 179.18 20.12, 191.32 2.01 M137.52 63.9 C155.83 41.81, 173.13 22.61, 191.32 2.01 M142.51 64.26 C155.83 49.83, 167.27 36.42, 196.31 2.37 M142.51 64.26 C162.02 41.8, 180.82 20.18, 196.31 2.37 M147.5 64.62 C159.34 47.8, 173.19 31.65, 201.95 1.97 M147.5 64.62 C161.24 50.97, 172.19 35.49, 201.95 1.97 M153.14 64.22 C166.89 47.33, 179.95 31.85, 206.28 3.09 M153.14 64.22 C167.76 46.9, 184.21 28.09, 206.28 3.09 M158.13 64.58 C171.74 47.33, 187.17 29.08, 209.3 5.71 M158.13 64.58 C173.73 47.03, 188.19 28.88, 209.3 5.71 M163.77 64.19 C178.47 47.19, 191.48 32.36, 212.97 7.58 M163.77 64.19 C180.71 44.39, 196.86 25.37, 212.97 7.58 M168.76 64.55 C183.26 46.57, 198.35 29.07, 213.37 13.23 M168.76 64.55 C178.7 53.55, 189.96 41.77, 213.37 13.23 M174.4 64.15 C183.12 53.51, 193.93 42.15, 213.76 18.87 M174.4 64.15 C186.81 51.46, 198.24 38.01, 213.76 18.87 M179.39 64.51 C190.93 51.65, 205.94 34.57, 213.5 25.27 M179.39 64.51 C190.67 52.13, 201.46 40.5, 213.5 25.27 M185.03 64.12 C190.84 55.89, 200.43 46.37, 213.24 31.66 M185.03 64.12 C193.49 55.79, 200.38 46.14, 213.24 31.66 M190.02 64.48 C194.45 58.36, 198.76 52.18, 212.98 38.06 M190.02 64.48 C194.72 58.31, 199.62 53.07, 212.98 38.06 M195 64.84 C199.72 58.46, 206.33 50.94, 213.37 43.71 M195 64.84 C200.22 58.78, 206.24 52.01, 213.37 43.71 M199.99 65.2 C204.07 60.2, 209.8 54.09, 213.11 50.1 M199.99 65.2 C203.61 61.48, 205.16 57.78, 213.11 50.1" stroke="#ffffff" stroke-width="0.5" fill="none"></path><path d="M15.75 0 M15.75 0 C87.78 0.84, 160.96 0.73, 197.25 0 M15.75 0 C51.88 0.49, 88.82 -0.55, 197.25 0 M197.25 0 C206.85 -0.73, 212 5.56, 213 15.75 M197.25 0 C209.78 1.36, 213.02 5.38, 213 15.75 M213 15.75 C211.72 21.76, 212.52 28.54, 213 47.25 M213 15.75 C213.33 26.09, 212.25 33.91, 213 47.25 M213 47.25 C213.75 58.46, 207.86 61.97, 197.25 63 M213 47.25 C211.5 58.36, 206.33 64.95, 197.25 63 M197.25 63 C154.94 62.69, 111.51 63.62, 15.75 63 M197.25 63 C153.61 63.51, 110.74 63.16, 15.75 63 M15.75 63 C6.3 63.82, -0.52 58.02, 0 47.25 M15.75 63 C6.17 61.93, -0.49 57.7, 0 47.25 M0 47.25 C0.13 35.83, 0.75 27.3, 0 15.75 M0 47.25 C0.13 34.43, 0.48 23.65, 0 15.75 M0 15.75 C0.25 5.67, 4.63 -1.06, 15.75 0 M0 15.75 C-0.09 4.04, 6.89 -0.14, 15.75 0" stroke="#e67700" stroke-width="1" fill="none"></path></g><g transform="translate(449.5 235.99999999999997) rotate(0 73 10.5)"><text x="73" y="15" font-family="Virgil, Segoe UI Emoji" font-size="16px" fill="#000000" text-anchor="middle" style="white-space: pre;" direction="ltr">Apache Cassandra</text></g><g stroke-linecap="round" transform="translate(532 117.49999999999997) rotate(0 48.5 35.5)"><path d="M2.23 7.24 C2.23 7.24, 2.23 7.24, 2.23 7.24 M2.23 7.24 C2.23 7.24, 2.23 7.24, 2.23 7.24 M1.31 14.39 C4.26 11.17, 6.3 7.73, 9.84 4.58 M1.31 14.39 C3.87 10.43, 7.66 7.26, 9.84 4.58 M1.05 20.79 C5.74 12.51, 11.19 6.3, 18.77 0.41 M1.05 20.79 C6.25 14.62, 10.81 10.08, 18.77 0.41 M1.45 26.43 C8.21 19.54, 14.97 12.59, 23.75 0.77 M1.45 26.43 C7.86 20.05, 12.06 12.92, 23.75 0.77 M1.18 32.83 C4.63 25.2, 13.08 19.19, 29.4 0.38 M1.18 32.83 C8.62 24.29, 14.86 15.44, 29.4 0.38 M1.58 38.47 C7.39 31.03, 16.43 20.59, 34.38 0.74 M1.58 38.47 C14.91 24.24, 26.21 10.25, 34.38 0.74 M1.32 44.87 C15.89 27.35, 33.39 10.39, 40.03 0.34 M1.32 44.87 C14.72 29.17, 29.36 12.77, 40.03 0.34 M1.06 51.27 C11.73 36.14, 28.21 20.36, 45.01 0.7 M1.06 51.27 C15.14 33.27, 31.81 16.03, 45.01 0.7 M0.79 57.67 C12.69 40.45, 28.36 24.74, 50.66 0.31 M0.79 57.67 C11.31 46.51, 21.62 35.37, 50.66 0.31 M2.5 61.8 C16.73 45.63, 29.88 31.45, 55.64 0.67 M2.5 61.8 C16.45 46.13, 29.09 31.52, 55.64 0.67 M4.21 65.93 C23.49 48.19, 39.23 26.02, 60.63 1.03 M4.21 65.93 C26.67 41.95, 48.49 16.82, 60.63 1.03 M7.23 68.56 C28.57 44.01, 48.9 22.24, 66.27 0.63 M7.23 68.56 C24.36 50.61, 39.23 31.74, 66.27 0.63 M10.9 70.43 C28.49 49.63, 50.49 29.14, 71.26 0.99 M10.9 70.43 C33.58 44.85, 57.29 18.18, 71.26 0.99 M15.23 71.54 C36.02 47.37, 55.97 24.37, 76.9 0.6 M15.23 71.54 C29.78 54.01, 43.51 37.28, 76.9 0.6 M19.56 72.66 C37.43 52.39, 51.22 34.17, 81.23 1.71 M19.56 72.66 C34.28 55.02, 49.29 38.45, 81.23 1.71 M25.21 72.26 C43.71 50.29, 65.49 25.29, 86.88 1.32 M25.21 72.26 C43.7 50.1, 63.21 28.57, 86.88 1.32 M30.19 72.62 C47.06 51.66, 62.8 33.64, 90.55 3.19 M30.19 72.62 C47.95 51.28, 67.73 29.63, 90.55 3.19 M35.18 72.98 C58.05 47.57, 81.7 20.08, 93.57 5.81 M35.18 72.98 C51.64 55.1, 68.55 35.49, 93.57 5.81 M40.82 72.59 C53.66 59.83, 64.52 45.7, 95.93 9.19 M40.82 72.59 C57.82 54.85, 72.85 36.97, 95.93 9.19 M45.81 72.95 C56.09 60.99, 70.64 47.59, 98.3 12.57 M45.81 72.95 C59.41 58.87, 72.54 43.95, 98.3 12.57 M51.45 72.55 C62.56 59.35, 76.86 42.94, 98.03 18.97 M51.45 72.55 C68.37 52.86, 86.22 31.3, 98.03 18.97 M56.44 72.91 C70.01 58.84, 84.52 39.23, 98.43 24.61 M56.44 72.91 C73.6 53.65, 88.58 36.87, 98.43 24.61 M62.08 72.52 C76.04 55.19, 91.01 41.58, 98.17 31.01 M62.08 72.52 C74.89 58.34, 87.87 42.94, 98.17 31.01 M67.07 72.88 C79.5 60.28, 90.62 44.5, 97.91 37.41 M67.07 72.88 C77.82 61.27, 88.85 48.02, 97.91 37.41 M72.71 72.48 C80.76 63.35, 89.06 54.76, 98.3 43.05 M72.71 72.48 C78.44 65.93, 85.85 57.07, 98.3 43.05 M79.01 71.34 C84.77 66.49, 87.84 61.14, 98.04 49.45 M79.01 71.34 C83.14 66.46, 88.3 61.44, 98.04 49.45 M85.31 70.19 C88.37 64.45, 95.76 59.24, 97.78 55.85 M85.31 70.19 C88.66 64.72, 93.3 60.86, 97.78 55.85" stroke="#fd7e14" stroke-width="0.5" fill="none"></path><path d="M17.75 0 M17.75 0 C33.53 0.73, 49.61 1.65, 79.25 0 M17.75 0 C34.7 -0.46, 53.67 -0.21, 79.25 0 M79.25 0 C90.83 1.59, 99 6.63, 97 17.75 M79.25 0 C90.12 1.42, 97.11 5.34, 97 17.75 M97 17.75 C96.32 24.97, 96.09 33.04, 97 53.25 M97 17.75 C97.49 29.63, 95.98 41.6, 97 53.25 M97 53.25 C96.26 64.55, 91.02 71.5, 79.25 71 M97 53.25 C98.23 62.8, 91.14 69.28, 79.25 71 M79.25 71 C56.79 69.38, 36.38 72.58, 17.75 71 M79.25 71 C59.05 70.5, 37.75 72.01, 17.75 71 M17.75 71 C4.52 72.09, 1.65 66.35, 0 53.25 M17.75 71 C6.23 71.36, 1.29 66.43, 0 53.25 M0 53.25 C0.18 39.81, 1.33 24.06, 0 17.75 M0 53.25 C-0.7 39.42, -1.06 25.55, 0 17.75 M0 17.75 C-1.42 5.18, 7.28 1.35, 17.75 0 M0 17.75 C-2.28 5.24, 4.91 1.38, 17.75 0" stroke="#e67700" stroke-width="1" fill="none"></path></g><g transform="translate(536.5 131.99999999999997) rotate(0 43.5 21)"><text x="43.5" y="15" font-family="Virgil, Segoe UI Emoji" font-size="16px" fill="#000000" text-anchor="middle" style="white-space: pre;" direction="ltr">Estimator </text><text x="43.5" y="36" font-family="Virgil, Segoe UI Emoji" font-size="16px" fill="#000000" text-anchor="middle" style="white-space: pre;" direction="ltr">(Python)</text></g><g stroke-linecap="round"><g transform="translate(463.3844391803441 194.01644280154252) rotate(0 0.3898572367044153 7.498519484419376)"><path d="M0.76 0.1 C1.02 2.54, 1.15 12.29, 1.05 14.92 M-0.31 -0.9 C-0.06 1.63, 0.69 12.9, 0.64 15.89" stroke="#e67700" stroke-width="1" fill="none"></path></g><g transform="translate(463.3844391803441 194.01644280154252) rotate(0 0.3898572367044153 7.498519484419376)"><path d="M-2.26 9.16 C-2.26 10.41, -0.9 12.44, 0.98 15.49 M-2.44 8.79 C-1.37 10.42, -1.13 12.49, 0.92 16.16" stroke="#e67700" stroke-width="1" fill="none"></path></g><g transform="translate(463.3844391803441 194.01644280154252) rotate(0 0.3898572367044153 7.498519484419376)"><path d="M3.21 8.99 C1.82 10.32, 1.79 12.39, 0.98 15.49 M3.03 8.62 C2.58 10.3, 1.32 12.42, 0.92 16.16" stroke="#e67700" stroke-width="1" fill="none"></path></g></g><mask></mask><g stroke-linecap="round"><g transform="translate(578.6717735128998 193.5014805155806) rotate(0 0.43557749141882596 9.70306052118542)"><path d="M0.71 0.51 C1.01 3.81, 0.94 16.71, 1.25 19.68 M-0.38 -0.27 C-0.23 2.69, -0.37 14.66, 0.06 17.92" stroke="#e67700" stroke-width="1" fill="none"></path></g><g transform="translate(578.6717735128998 193.5014805155806) rotate(0 0.43557749141882596 9.70306052118542)"><path d="M-3.27 8.79 C-2.18 12.03, -2.31 13.6, 0.58 17.86 M-3.71 9.15 C-2.48 11.53, -1.62 13.38, -0.01 17.87" stroke="#e67700" stroke-width="1" fill="none"></path></g><g transform="translate(578.6717735128998 193.5014805155806) rotate(0 0.43557749141882596 9.70306052118542)"><path d="M3.24 8.45 C2.68 11.81, 0.89 13.46, 0.58 17.86 M2.8 8.8 C2.54 11.21, 1.92 13.15, -0.01 17.87" stroke="#e67700" stroke-width="1" fill="none"></path></g></g><mask></mask><g stroke-linecap="round"><g transform="translate(463.43471823842845 191.5014805155806) rotate(0 0.14180593585655288 8.41768227996306)"><path d="M0.32 1.09 C0.12 3.5, -0.98 12.58, -0.95 15.13 M-0.96 0.61 C-0.82 3.09, 1.1 13.95, 1.25 16.22" stroke="#e67700" stroke-width="1" fill="none"></path></g><g transform="translate(463.43471823842845 191.5014805155806) rotate(0 0.14180593585655288 8.41768227996306)"><path d="M-1.72 8.49 C-1.79 11.7, 0.24 13.71, 0.84 15.7 M-2.7 8.89 C-1.39 11.57, -0.04 13.82, 1.47 15.97" stroke="#e67700" stroke-width="1" fill="none"></path></g><g transform="translate(463.43471823842845 191.5014805155806) rotate(0 0.14180593585655288 8.41768227996306)"><path d="M3.7 7.77 C1.9 11.23, 2.19 13.47, 0.84 15.7 M2.72 8.17 C2.25 11.14, 1.84 13.61, 1.47 15.97" stroke="#e67700" stroke-width="1" fill="none"></path></g></g><mask></mask><g stroke-linecap="round"><g transform="translate(503.11289845237525 154.01644280154252) rotate(0 12.33159418722613 -0.376183609858316)"><path d="M-0.06 -0.25 C4.34 -0.41, 21.84 -0.68, 26.21 -0.56 M-1.55 -1.43 C2.72 -1.46, 20.87 0.72, 25.37 0.68" stroke="#e67700" stroke-width="1" fill="none"></path></g><g transform="translate(503.11289845237525 154.01644280154252) rotate(0 12.33159418722613 -0.376183609858316)"><path d="M12.63 4.57 C15.84 3.49, 20.49 2.2, 24.34 1.11 M12.92 4.83 C17.6 3.46, 21.06 2.18, 25.42 1.09" stroke="#e67700" stroke-width="1" fill="none"></path></g><g transform="translate(503.11289845237525 154.01644280154252) rotate(0 12.33159418722613 -0.376183609858316)"><path d="M13.19 -4.3 C16.27 -2.85, 20.76 -1.6, 24.34 1.11 M13.48 -4.04 C17.94 -2.33, 21.2 -0.54, 25.42 1.09" stroke="#e67700" stroke-width="1" fill="none"></path></g></g><mask></mask><g stroke-linecap="round" transform="translate(407 30.99999999999997) rotate(0 112 29)"><path d="M3.86 3.36 C3.86 3.36, 3.86 3.36, 3.86 3.36 M3.86 3.36 C3.86 3.36, 3.86 3.36, 3.86 3.36 M1.63 12.02 C4.42 8.12, 7.5 7.53, 10.16 2.21 M1.63 12.02 C3.63 9.73, 5.25 7.68, 10.16 2.21 M1.37 18.41 C3.84 15.32, 8.13 10.31, 16.46 1.06 M1.37 18.41 C6.04 13.61, 8.09 10.26, 16.46 1.06 M1.76 24.06 C9.76 16.77, 15.16 8.73, 21.44 1.42 M1.76 24.06 C5.98 17.84, 10.61 12.47, 21.44 1.42 M1.5 30.46 C8.23 19.46, 17.11 13.03, 26.43 1.78 M1.5 30.46 C7.91 22.7, 14.67 16.35, 26.43 1.78 M1.24 36.85 C7.53 26.55, 17.84 17.48, 32.07 1.38 M1.24 36.85 C9.95 27.34, 17.75 17.62, 32.07 1.38 M1.63 42.5 C12.07 31.67, 17.73 24.74, 37.06 1.74 M1.63 42.5 C11.54 30.69, 21.96 19.16, 37.06 1.74 M2.03 48.14 C14.53 35.64, 23.42 22.4, 42.71 1.35 M2.03 48.14 C10.83 36.87, 20.24 27.56, 42.71 1.35 M3.74 52.27 C14.56 43.06, 21.33 32.42, 47.69 1.71 M3.74 52.27 C14.99 39.5, 24.47 28.43, 47.69 1.71 M5.44 56.41 C17.65 41.19, 34.54 25.78, 53.34 1.31 M5.44 56.41 C18.92 42.01, 32.96 25.96, 53.34 1.31 M9.12 58.28 C25.15 40.52, 41 23.23, 58.32 1.67 M9.12 58.28 C23.31 39.85, 40.22 22.46, 58.32 1.67 M14.76 57.88 C29.84 42.04, 42.64 29.54, 63.97 1.28 M14.76 57.88 C31.78 39.25, 48.83 18.09, 63.97 1.28 M19.75 58.24 C40.11 35.07, 57.05 14.31, 68.95 1.64 M19.75 58.24 C34.21 42.57, 46.36 27.81, 68.95 1.64 M25.39 57.85 C42.22 38.55, 59.68 16.37, 73.94 2 M25.39 57.85 C36.04 45.13, 44.98 33.23, 73.94 2 M30.38 58.21 C41.37 42.31, 52.92 29.44, 79.58 1.6 M30.38 58.21 C39.99 46.29, 50.82 34.4, 79.58 1.6 M35.36 58.57 C54.68 38.86, 73.01 17.25, 84.57 1.96 M35.36 58.57 C54.07 36.77, 73.62 14.38, 84.57 1.96 M41.01 58.17 C54.74 43.72, 67.97 26.59, 90.21 1.57 M41.01 58.17 C51.69 45.63, 61.26 35.24, 90.21 1.57 M46 58.53 C63.49 42.65, 77.34 21.93, 95.2 1.93 M46 58.53 C56.99 46.77, 68.15 34.31, 95.2 1.93 M51.64 58.14 C67.92 41.32, 82.3 25.57, 100.84 1.54 M51.64 58.14 C61 46.83, 71.39 34.48, 100.84 1.54 M56.63 58.5 C67.95 43.28, 81.3 30.91, 105.83 1.9 M56.63 58.5 C67.77 46.5, 77.24 34.52, 105.83 1.9 M62.27 58.1 C73.78 46.44, 82.64 37.13, 111.47 1.5 M62.27 58.1 C80.83 37.32, 98.19 15.84, 111.47 1.5 M67.26 58.46 C79.13 45.09, 92.01 28.42, 116.46 1.86 M67.26 58.46 C83.46 39.58, 100.74 19.89, 116.46 1.86 M72.9 58.07 C90.3 37.58, 108.64 16.17, 121.45 2.22 M72.9 58.07 C90.75 35.14, 110.75 14.05, 121.45 2.22 M77.89 58.43 C89.07 42.33, 101.75 30.07, 127.09 1.83 M77.89 58.43 C90.46 43.06, 103.79 28.59, 127.09 1.83 M83.53 58.03 C100.2 39.32, 113.74 21.01, 132.08 2.19 M83.53 58.03 C98.54 42.14, 113.15 23.8, 132.08 2.19 M88.52 58.4 C109.96 34.4, 127.64 13.8, 137.72 1.79 M88.52 58.4 C104.58 39.89, 121.17 21.7, 137.72 1.79 M93.5 58.76 C111.64 41.94, 127.92 22.51, 142.71 2.15 M93.5 58.76 C106.79 45.23, 118.69 29.83, 142.71 2.15 M99.15 58.36 C111.78 46.19, 121.13 31.13, 148.35 1.76 M99.15 58.36 C110.12 45.12, 122.51 30.93, 148.35 1.76 M104.13 58.72 C119.32 44.1, 131.35 27.77, 153.34 2.12 M104.13 58.72 C122.08 35.69, 142.8 15.16, 153.34 2.12 M109.78 58.33 C127.46 35.5, 148.73 14.41, 158.98 1.72 M109.78 58.33 C125.43 41.69, 139.66 22.87, 158.98 1.72 M114.76 58.69 C124.62 44.23, 137.72 31.02, 163.97 2.08 M114.76 58.69 C131.39 38.71, 149.5 18.2, 163.97 2.08 M120.41 58.29 C135.21 43.79, 144.98 25.91, 168.95 2.44 M120.41 58.29 C130.89 46.78, 140.68 33.07, 168.95 2.44 M125.39 58.65 C136.14 48.92, 143.3 35.85, 174.6 2.05 M125.39 58.65 C145.36 37.51, 164.06 15.44, 174.6 2.05 M131.04 58.26 C146.9 36.82, 166.69 15.53, 179.58 2.41 M131.04 58.26 C145.84 42.05, 159.25 26.08, 179.58 2.41 M136.02 58.62 C148.7 44.3, 159.04 32.73, 185.23 2.01 M136.02 58.62 C147.57 47.61, 156.38 35.69, 185.23 2.01 M141.01 58.98 C157.63 39.14, 176.47 19.53, 190.21 2.37 M141.01 58.98 C158.67 37.75, 178.09 16.41, 190.21 2.37 M146.65 58.58 C160.51 44.11, 174.81 24.71, 195.86 1.98 M146.65 58.58 C163.79 39.73, 180.14 19.46, 195.86 1.98 M151.64 58.94 C172.02 37.64, 188.26 15.2, 200.84 2.34 M151.64 58.94 C162.94 45.79, 173.42 33.13, 200.84 2.34 M157.28 58.55 C178.25 34.7, 193.44 14.76, 206.49 1.94 M157.28 58.55 C168.33 45.83, 179.74 32.56, 206.49 1.94 M162.27 58.91 C181.29 36.5, 195.58 17.69, 211.47 2.31 M162.27 58.91 C174.51 45.34, 187.56 31.19, 211.47 2.31 M167.91 58.51 C180.41 46.33, 191.23 30.08, 217.12 1.91 M167.91 58.51 C181.53 42.79, 195.08 28.84, 217.12 1.91 M172.9 58.87 C185.8 44.3, 203.38 27.75, 220.79 3.78 M172.9 58.87 C191.92 37.56, 208.03 17.15, 220.79 3.78 M178.54 58.48 C194.74 36.94, 211.49 17.98, 222.5 7.91 M178.54 58.48 C195.24 38.1, 213.22 19.15, 222.5 7.91 M183.53 58.84 C196.95 41.84, 213.73 23.22, 224.21 12.05 M183.53 58.84 C194.56 47.99, 203.06 36.06, 224.21 12.05 M188.52 59.2 C202.69 43.32, 213.17 30.05, 224.6 17.69 M188.52 59.2 C197.55 46.7, 208.32 35.78, 224.6 17.69 M194.16 58.8 C201.99 48.62, 211.27 36.92, 224.34 24.09 M194.16 58.8 C203.99 47.6, 215.85 35.52, 224.34 24.09 M199.15 59.16 C207.38 53.36, 211.32 45.85, 224.08 30.49 M199.15 59.16 C208.33 49.31, 216.98 39.94, 224.08 30.49 M204.79 58.77 C209.46 51.75, 213.72 45.85, 223.82 36.88 M204.79 58.77 C211.25 51.28, 217.65 43.86, 223.82 36.88 M210.43 58.38 C214.03 55, 217.66 50.45, 224.21 42.53 M210.43 58.38 C215.04 51.32, 222.07 46.35, 224.21 42.53 M216.73 57.23 C217.22 56.5, 219.77 54.65, 223.29 49.68 M216.73 57.23 C218.11 55.51, 220.52 53.52, 223.29 49.68 M3.32 54.11 C3.32 54.11, 3.32 54.11, 3.32 54.11 M3.32 54.11 C3.32 54.11, 3.32 54.11, 3.32 54.11 M10.47 55.02 C9.15 54.01, 4.91 51.02, 0.66 46.5 M10.47 55.02 C6.56 51.32, 2.48 47.77, 0.66 46.5 M16.11 54.63 C9.46 49.68, 6.48 45.9, 0.26 40.85 M16.11 54.63 C11.73 52.59, 8.93 48.37, 0.26 40.85 M22.51 54.89 C13.62 49.58, 8.22 42.19, 0.62 35.87 M22.51 54.89 C13.96 47.73, 6.1 39.5, 0.62 35.87 M28.91 55.15 C22.51 48.52, 18.44 45.17, 0.98 30.88 M28.91 55.15 C21.25 49.13, 15.03 43.15, 0.98 30.88 M34.55 54.76 C25.33 44.34, 14.68 36.13, 0.59 25.24 M34.55 54.76 C25.5 48.52, 16.64 41.09, 0.59 25.24 M40.95 55.02 C28.75 42.94, 17.21 33.49, 0.95 20.25 M40.95 55.02 C32.54 48.92, 24.67 41.08, 0.95 20.25 M46.59 54.62 C32.85 41.92, 15.19 27.41, 0.55 14.61 M46.59 54.62 C35.25 43.78, 22.49 35, 0.55 14.61 M52.99 54.89 C39.36 45.4, 27.9 32.11, 0.91 9.62 M52.99 54.89 C33.17 38.34, 15.37 22.56, 0.91 9.62 M59.39 55.15 C42.74 41.17, 27.74 26.72, 2.78 5.94 M59.39 55.15 C47.41 45.51, 34.8 33.45, 2.78 5.94 M65.03 54.75 C40.24 34.69, 19.54 15.19, 4.65 2.27 M65.03 54.75 C41.32 34.53, 18.71 13.65, 4.65 2.27 M71.43 55.01 C58.96 41.88, 43.58 28.97, 8.79 0.56 M71.43 55.01 C45.21 32.35, 21.82 10.99, 8.79 0.56 M77.83 55.28 C60.06 40.24, 47.04 27.4, 13.68 -0.49 M77.83 55.28 C62.16 41.3, 46.41 26.49, 13.68 -0.49 M83.47 54.88 C67 39.75, 51.09 27.07, 17.05 -2.85 M83.47 54.88 C57.63 34.51, 31.66 11.96, 17.05 -2.85 M89.87 55.14 C68.73 36.13, 44.9 17.83, 23.45 -2.59 M89.87 55.14 C68.84 35.97, 48.87 18.29, 23.45 -2.59 M96.26 55.4 C72.78 34.96, 50.9 15.03, 29.1 -2.98 M96.26 55.4 C80.24 42.98, 65.28 29.91, 29.1 -2.98 M101.91 55.01 C78.84 37.11, 58.18 15.7, 35.49 -2.72 M101.91 55.01 C87.41 42.34, 71.88 28.25, 35.49 -2.72 M108.31 55.27 C91.94 41.83, 79.39 31.08, 41.89 -2.46 M108.31 55.27 C88.63 37.64, 68.07 18.1, 41.89 -2.46 M114.7 55.53 C92.27 36.62, 70.17 18.78, 47.53 -2.86 M114.7 55.53 C98.86 42.9, 83.04 27.28, 47.53 -2.86 M120.35 55.14 C101.11 35.92, 79.08 15.84, 53.93 -2.6 M120.35 55.14 C102.08 39.1, 82.27 22.04, 53.93 -2.6 M126.74 55.4 C102.44 33.98, 78.03 11.07, 59.57 -2.99 M126.74 55.4 C105.17 36.94, 84.71 19.11, 59.57 -2.99 M132.39 55 C114.91 43.51, 100.97 25.91, 65.97 -2.73 M132.39 55 C110.02 36.87, 89.18 16.71, 65.97 -2.73 M138.78 55.27 C120.85 38.18, 101.52 22.57, 72.37 -2.47 M138.78 55.27 C115.58 35.11, 91.19 14.47, 72.37 -2.47 M145.18 55.53 C129.5 40.4, 111.06 24.76, 78.01 -2.86 M145.18 55.53 C128.96 40.68, 110.9 27.02, 78.01 -2.86 M150.83 55.13 C136.13 41.98, 119.37 26.62, 84.41 -2.6 M150.83 55.13 C134.86 40.47, 117.09 27.45, 84.41 -2.6 M157.22 55.39 C141.52 40.42, 127.45 27.84, 90.81 -2.34 M157.22 55.39 C141.1 42.11, 125.53 27.9, 90.81 -2.34 M163.62 55.66 C143.55 38.07, 126.53 21.67, 96.45 -2.73 M163.62 55.66 C137.12 31.99, 111.76 9.58, 96.45 -2.73 M169.26 55.26 C148.54 36.05, 128.5 21.1, 102.85 -2.47 M169.26 55.26 C148.01 37.41, 126.18 18.45, 102.85 -2.47 M175.66 55.52 C153.31 35.14, 126.49 13.95, 109.25 -2.21 M175.66 55.52 C153.55 36.69, 131.18 16.98, 109.25 -2.21 M182.06 55.78 C169.55 42.36, 153.48 30.87, 114.89 -2.6 M182.06 55.78 C165.16 41.12, 149.88 28.72, 114.89 -2.6 M187.7 55.39 C175 44.06, 157.79 31.38, 121.29 -2.34 M187.7 55.39 C162.37 32.63, 138.26 10.9, 121.29 -2.34 M194.1 55.65 C173.79 36.71, 154.21 19.89, 127.69 -2.08 M194.1 55.65 C179.57 42.66, 164.63 29.9, 127.69 -2.08 M200.5 55.91 C177.06 35.46, 150.31 11.21, 133.33 -2.48 M200.5 55.91 C175.7 33.43, 152.73 13.52, 133.33 -2.48 M206.14 55.52 C189.56 44.08, 174.11 30.11, 139.73 -2.22 M206.14 55.52 C180.64 32.06, 153.88 9.52, 139.73 -2.22 M211.78 55.12 C189.41 33.72, 166.38 16.08, 145.37 -2.61 M211.78 55.12 C192.67 38.76, 173.66 22.02, 145.37 -2.61 M218.18 55.38 C202.22 41.23, 188.18 29.54, 151.77 -2.35 M218.18 55.38 C192.24 34.07, 167.6 12, 151.77 -2.35 M220.81 52.37 C205.04 41.27, 191.76 26.5, 158.17 -2.09 M220.81 52.37 C203.9 38.43, 187.17 23.17, 158.17 -2.09 M223.43 49.35 C207.74 33.76, 189.39 18.27, 163.81 -2.48 M223.43 49.35 C203.72 32.23, 183.56 16.29, 163.81 -2.48 M223.79 44.36 C210.13 31.69, 196.8 20.64, 170.21 -2.22 M223.79 44.36 C211.97 33.93, 201.11 24.47, 170.21 -2.22 M223.4 38.72 C207.19 22.76, 186.49 7.58, 176.6 -1.96 M223.4 38.72 C213.3 30.42, 204.38 21.95, 176.6 -1.96 M223.76 33.73 C212.54 24.42, 196.59 12.39, 182.25 -2.35 M223.76 33.73 C210.26 22.05, 197.81 11.57, 182.25 -2.35 M224.12 28.74 C209.65 18.19, 198.46 6.43, 188.65 -2.09 M224.12 28.74 C212.03 18.59, 199.33 7.39, 188.65 -2.09 M223.72 23.1 C211.83 12.58, 200.39 2.85, 195.04 -1.83 M223.72 23.1 C213.01 13.98, 202.73 4.99, 195.04 -1.83 M224.08 18.11 C219.16 13.29, 210.32 4.68, 200.69 -2.22 M224.08 18.11 C214.74 9.91, 206.79 3.71, 200.69 -2.22 M224.44 13.13 C218.58 9.68, 213.9 4.75, 207.08 -1.96 M224.44 13.13 C219.83 9.48, 215.44 5.07, 207.08 -1.96 M225.56 8.8 C222.32 6.41, 220.48 6.01, 215.75 0.27 M225.56 8.8 C221.38 5.29, 218.08 2.2, 215.75 0.27" stroke="#868e96" stroke-width="0.5" fill="none"></path><path d="M14.5 0 M14.5 0 C71.19 1.85, 127.43 -1.41, 209.5 0 M14.5 0 C68.31 1.07, 121.26 0.62, 209.5 0 M209.5 0 C218.68 -0.54, 224.93 5.51, 224 14.5 M209.5 0 C219.88 0.65, 224.82 5, 224 14.5 M224 14.5 C223.05 25.2, 225.55 33.81, 224 43.5 M224 14.5 C224.41 23.62, 224.71 32.35, 224 43.5 M224 43.5 C223.65 54.14, 220.83 58.76, 209.5 58 M224 43.5 C225.02 55.24, 217.33 57.92, 209.5 58 M209.5 58 C131.92 58.24, 55.4 56.17, 14.5 58 M209.5 58 C162.79 59.77, 116.96 59.23, 14.5 58 M14.5 58 C3.72 59.11, -0.23 51.92, 0 43.5 M14.5 58 C3.72 56.37, 1.19 53.09, 0 43.5 M0 43.5 C-0.31 36.56, 0.53 26.07, 0 14.5 M0 43.5 C0.39 38.14, 0.16 32.39, 0 14.5 M0 14.5 C0.97 3.61, 3.66 -0.75, 14.5 0 M0 14.5 C-0.12 3.4, 2.71 -1.36, 14.5 0" stroke="#000000" stroke-width="1" fill="none"></path></g><g transform="translate(449 49.49999999999997) rotate(0 70 10.5)"><text x="70" y="15" font-family="Virgil, Segoe UI Emoji" font-size="16px" fill="#000000" text-anchor="middle" style="white-space: pre;" direction="ltr">Web app (Next.js)</text></g><g stroke-linecap="round"><g transform="translate(450 95.99999999999997) rotate(0 0.5832841945253335 7.837293259017173)"><path d="M-0.62 1.14 C-0.57 3.6, -0.59 11.68, -0.6 13.98 M1.25 0.69 C1.78 3.34, 1.7 12.4, 1.79 14.98" stroke="#000000" stroke-width="1" fill="none"></path></g><g transform="translate(450 95.99999999999997) rotate(0 0.5832841945253335 7.837293259017173)"><path d="M-0.17 7.6 C-0.97 9.12, 0.22 10.57, 2.15 15.04 M-1.17 7.77 C-0.02 9.5, 0.35 11.41, 1.88 15.1" stroke="#000000" stroke-width="1" fill="none"></path></g><g transform="translate(450 95.99999999999997) rotate(0 0.5832841945253335 7.837293259017173)"><path d="M4.96 7.52 C3.01 9.03, 3.06 10.5, 2.15 15.04 M3.96 7.69 C3.81 9.48, 2.89 11.41, 1.88 15.1" stroke="#000000" stroke-width="1" fill="none"></path></g></g><mask></mask><g transform="translate(258 18) rotate(0 48.5 10.499999999999986)"><text x="0" y="14" font-family="Virgil, Segoe UI Emoji" font-size="16px" fill="#364fc7" text-anchor="start" style="white-space: pre;" direction="ltr">K8s Cluster</text></g></svg>